<?xml version="1.0" encoding="utf-8"?>
<!-- Generator: Adobe Illustrator 25.2.0, SVG Export Plug-In . SVG Version: 6.00 Build 0)  -->
<svg version="1.1" id="Capa_1" xmlns="http://www.w3.org/2000/svg" xmlns:xlink="http://www.w3.org/1999/xlink" x="0px" y="0px"
	 viewBox="0 0 222 66" style="enable-background:new 0 0 222 66;" xml:space="preserve">
<style type="text/css">
	.st0{enable-background:new    ;}
	.st1{fill:#3D3D3D;}
</style>
<g class="st0">
	<path class="st1" d="M33,24.1c1.2,0.9,2,2,2.6,3.5s0.8,3.1,0.8,5c0,2.1-0.3,4.1-0.9,5.9c-0.6,1.8-1.4,3.3-2.6,4.6
		c-1.1,1.3-2.6,2.3-4.3,3.1c-1.8,0.7-3.8,1.1-6,1.1c-3.9,0-7.3-0.8-10.3-2.5l4.1-33.4h7.2l-1.9,15.4H22c1.9-2.6,4.2-3.9,6.8-3.9
		C30.5,22.8,31.8,23.2,33,24.1z M26.2,39.7c1-0.7,1.8-1.7,2.3-2.9s0.7-2.5,0.7-3.9c0-1.1-0.3-1.9-0.8-2.7c-0.5-0.7-1.2-1.1-2-1.1
		c-1.4,0-2.7,0.8-3.9,2.5c-1.2,1.7-2,4-2.4,7l-0.2,1.7c0.9,0.2,1.8,0.3,2.6,0.3C23.9,40.8,25.1,40.4,26.2,39.7z"/>
	<path class="st1" d="M59.3,25.4c1.8,1.8,2.7,4.2,2.7,7.4c0,1.5-0.2,3-0.5,4.4s-0.8,2.8-1.5,4s-1.5,2.3-2.6,3.1s-2.2,1.6-3.7,2.1
		s-3.1,0.8-4.8,0.8c-3,0-5.4-0.9-7.2-2.7S39,40.2,39,37.1c0-1.1,0.1-2.1,0.3-3.2s0.5-2,0.8-3c0.4-0.9,0.8-1.8,1.4-2.7
		s1.2-1.6,1.9-2.2c0.7-0.7,1.5-1.2,2.4-1.7s1.8-0.8,2.9-1.1c1.1-0.3,2.2-0.4,3.3-0.4C55.1,22.8,57.5,23.7,59.3,25.4z M48.6,30.3
		c-0.8,0.7-1.4,1.7-1.8,2.8c-0.4,1.1-0.6,2.3-0.6,3.5c0,0.7,0.1,1.3,0.3,1.9s0.4,1,0.7,1.3s0.7,0.5,1,0.7c0.4,0.2,0.8,0.2,1.2,0.2
		c1,0,2-0.4,2.8-1.1c0.8-0.7,1.4-1.6,1.9-2.7c0.4-1.1,0.6-2.3,0.6-3.6c0-0.7-0.1-1.3-0.2-1.8c-0.1-0.5-0.3-0.9-0.6-1.2
		c-0.2-0.3-0.5-0.5-0.8-0.7s-0.6-0.3-0.9-0.3s-0.5-0.1-0.8-0.1C50.4,29.2,49.4,29.6,48.6,30.3z"/>
	<path class="st1" d="M86.8,25.1c0.9,1.6,1.1,4,0.7,7.2l-1.9,14.4h-7.2L80.1,34c0.3-1.6,0.3-2.8,0.1-3.6c-0.2-0.8-0.7-1.2-1.5-1.2
		c-0.5,0-1.1,0.2-1.7,0.6s-1.2,0.9-1.8,1.6c-0.6,0.7-1.1,1.6-1.5,2.8s-0.8,2.4-1,3.8l-1.1,8.7h-7.2l2.9-23.5h7.2l-0.4,3.4h0.1
		c2.1-2.6,4.7-3.9,7.8-3.9C84.3,22.8,85.9,23.6,86.8,25.1z"/>
	<path class="st1" d="M123.2,23.2l-2.5,20.5c-0.3,2-0.7,3.8-1.3,5.4c-0.6,1.5-1.4,2.8-2.2,3.7c-0.8,1-1.8,1.7-3,2.3s-2.3,1-3.4,1.2
		s-2.4,0.3-3.8,0.3c-3.2,0-6.1-0.8-8.5-2.3l2.3-5.6c1.9,1.2,3.9,1.8,6,1.8c0.8,0,1.4-0.1,2-0.2c0.6-0.1,1.1-0.3,1.7-0.7
		s1-0.8,1.4-1.3s0.7-1.3,1-2.2s0.5-2,0.7-3.3l0.1-0.7h-0.1c-0.9,1.3-1.9,2.3-3,3.1c-1.2,0.8-2.4,1.1-3.7,1.1c-1.2,0-2.3-0.2-3.3-0.7
		s-1.8-1.2-2.4-2s-1.1-1.8-1.4-2.9s-0.5-2.3-0.5-3.5c0-2,0.3-3.9,0.9-5.7s1.4-3.3,2.4-4.6c1-1.3,2.2-2.3,3.5-3.1
		c1.4-0.8,2.8-1.1,4.3-1.1c2.3,0,4.2,0.7,5.5,2h0.1l0.2-1.6h7V23.2z M112.8,37.6c1.2-1.6,2-3.8,2.4-6.4v-0.4
		c-1.1-1.1-2.3-1.6-3.8-1.6c-0.8,0-1.5,0.2-2.1,0.7c-0.7,0.5-1.2,1.1-1.6,1.8s-0.8,1.5-1,2.4s-0.4,1.7-0.4,2.5c0,1.1,0.2,2,0.7,2.6
		s1.1,0.9,2,0.9C110.4,40,111.6,39.2,112.8,37.6z"/>
	<path class="st1" d="M148.7,23.2l-2.9,23.5h-7.2l0.4-3.5l0,0c-1.8,2.6-4.2,3.9-7,3.9c-0.9,0-1.7-0.1-2.4-0.3s-1.3-0.5-1.9-1
		c-0.5-0.5-1-1-1.3-1.8c-0.3-0.7-0.5-1.6-0.6-2.7c-0.1-1-0.1-2.3,0.1-3.6l1.8-14.6h7.2l-1.5,12.5c-0.3,1.9-0.3,3.2,0,4
		c0.2,0.7,0.7,1.1,1.6,1.1c0.7,0,1.4-0.3,2.2-1s1.4-1.5,2-2.6s1-2.1,1.1-3.2l1.3-10.7C141.6,23.2,148.7,23.2,148.7,23.2z"/>
	<path class="st1" d="M155.9,41c1,0.5,1.9,0.8,2.8,0.8c0.6,0,1.2-0.1,1.5-0.3c0.4-0.2,0.6-0.5,0.6-1c0-0.4-0.2-0.7-0.6-1
		c-0.4-0.3-1.2-0.7-2.5-1.3c-0.3-0.1-0.4-0.2-0.6-0.3c-1.9-1-3.4-2-4.3-3.1s-1.4-2.5-1.4-4.1c0-1.5,0.4-2.9,1.2-4.1s1.8-2.1,3.2-2.8
		c1.3-0.6,2.8-1,4.4-1c1.6,0,3.2,0.3,4.7,1c1.5,0.6,2.7,1.6,3.8,2.8l-4.3,4.1c-0.4-0.6-0.9-1-1.4-1.4s-1-0.6-1.4-0.8
		c-0.4-0.1-0.8-0.2-1.2-0.2c-0.3,0-0.6,0-0.9,0.2c-0.3,0.1-0.5,0.3-0.7,0.5s-0.3,0.5-0.3,0.8c0,0.4,0.3,0.8,0.8,1.2
		c0.5,0.4,1.4,0.9,2.5,1.4c0.8,0.4,1.5,0.8,2.1,1.1s1.1,0.7,1.7,1.2c0.6,0.4,1,0.9,1.3,1.4s0.6,1,0.8,1.6s0.3,1.3,0.3,2
		c0,2.3-0.8,4.2-2.5,5.6c-1.7,1.4-3.9,2.1-6.8,2.1c-1.8,0-3.5-0.4-5.2-1.1c-1.7-0.7-3-1.7-4-3l4-4.2C154.1,39.8,155,40.4,155.9,41z"
		/>
	<path class="st1" d="M184.1,45.5c-2,1.1-4.1,1.7-6.3,1.7c-0.9,0-1.8-0.1-2.5-0.4s-1.4-0.7-1.9-1.3s-0.9-1.4-1.1-2.3
		s-0.2-2.1-0.1-3.5l1.3-10.6H171l0.7-5.8h2.4l0.9-6.9l7.4-1.5l-1,8.3h4.9l-0.7,5.8h-4.9l-1.2,9.7c0,0.4,0,0.8,0,1.1
		c0.1,0.3,0.2,0.5,0.4,0.6s0.4,0.2,0.7,0.2c0.6,0,1.4-0.2,2.4-0.7L184.1,45.5z"/>
	<path class="st1" d="M207,25.4c1.8,1.8,2.7,4.2,2.7,7.4c0,1.5-0.2,3-0.5,4.4s-0.8,2.7-1.5,3.9s-1.5,2.3-2.6,3.1s-2.2,1.6-3.7,2.1
		s-3.1,0.8-4.8,0.8c-3,0-5.4-0.9-7.2-2.7s-2.7-4.3-2.7-7.4c0-1.1,0.1-2.1,0.3-3.2c0.2-1,0.5-2,0.8-3c0.4-0.9,0.8-1.8,1.4-2.7
		s1.2-1.6,1.9-2.2c0.7-0.7,1.5-1.2,2.4-1.7s1.8-0.8,2.9-1.1c1.1-0.3,2.2-0.4,3.3-0.4C202.8,22.8,205.2,23.7,207,25.4z M196.4,30.3
		c-0.8,0.7-1.4,1.7-1.8,2.8c-0.4,1.1-0.6,2.3-0.6,3.5c0,0.7,0.1,1.3,0.3,1.9s0.4,1,0.7,1.3s0.7,0.5,1,0.7c0.4,0.2,0.8,0.2,1.2,0.2
		c1,0,2-0.4,2.8-1.1c0.8-0.7,1.4-1.6,1.9-2.7c0.4-1.1,0.6-2.3,0.6-3.6c0-0.7-0.1-1.3-0.2-1.8c-0.1-0.5-0.3-0.9-0.6-1.2
		c-0.2-0.3-0.5-0.5-0.8-0.7s-0.6-0.3-0.9-0.3c-0.3-0.1-0.5-0.1-0.8-0.1C198.1,29.2,197.2,29.6,196.4,30.3z"/>
</g>
</svg>
