<?xml version="1.0" encoding="utf-8"?>
<!-- Generator: Adobe Illustrator 22.1.0, SVG Export Plug-In . SVG Version: 6.00 Build 0)  -->
<svg version="1.1" id="Capa_1" xmlns="http://www.w3.org/2000/svg" xmlns:xlink="http://www.w3.org/1999/xlink" x="0px" y="0px"
	 viewBox="0 0 792 792" style="enable-background:new 0 0 792 792;" xml:space="preserve">
<style type="text/css">
	.st0{fill:#FF7D01;}
	.st1{fill:#240D09;}
	.st2{fill:#FFFFFF;stroke:#FFFFFF;stroke-miterlimit:10;}
	.st3{fill:#FD2316;}
	.st4{fill:#FFFFFF;}
</style>
<path id="PARTIDO_7_" class="st0" d="M739.8,389.6c0,29.5-27.5,55-34.7,82.2c-7.5,28.1,3.2,63.9-11,88.6c-14.5,25-51,33.5-71.3,53.8
	c-20.3,20.3-28.8,56.8-53.8,71.3c-24.7,14.3-60.5,3.5-88.6,11c-27.2,7.3-52.7,34.7-82.2,34.7c-29.5,0-55-27.4-82.2-34.7
	c-28.2-7.5-63.9,3.3-88.6-11c-25-14.5-33.5-51-53.8-71.3c-20.3-20.3-56.8-28.7-71.3-53.8c-14.3-24.7-3.5-60.4-11-88.6
	c-7.3-27.2-34.7-52.8-34.7-82.2c0-29.5,27.4-55,34.7-82.2c7.5-28.2-3.2-63.9,11-88.6c14.5-25,51-33.4,71.3-53.8
	c20.3-20.3,28.8-56.8,53.8-71.3c24.7-14.2,60.4-3.5,88.6-11c27.2-7.3,52.7-34.7,82.2-34.7c29.5,0,55,27.4,82.2,34.7
	c28.2,7.5,63.9-3.2,88.6,11c25,14.5,33.5,51,53.8,71.3c20.3,20.3,56.8,28.7,71.3,53.8c14.2,24.7,3.5,60.5,11,88.6
	C712.3,334.6,739.8,360.1,739.8,389.6"/>
<path class="st1" d="M709.3,389.6c0,26.9-25,50.1-31.6,74.9c-6.9,25.6,3,58.3-10,80.7c-13.2,22.8-46.5,30.5-65,49
	c-18.5,18.5-26.2,51.8-49,64.9c-22.5,13-55,3.2-80.7,10c-24.8,6.6-48,31.6-74.9,31.6s-50.1-25-74.9-31.6c-25.7-6.9-58.2,3-80.7-10
	c-22.8-13.2-30.5-46.5-49-64.9c-18.5-18.5-51.8-26.2-64.9-49c-13-22.4-3.2-55-10-80.7c-6.7-24.8-31.6-48-31.6-74.9
	c0-26.9,25-50.1,31.6-74.9c6.8-25.7-3-58.2,10-80.7c13.2-22.8,46.4-30.5,64.9-49c18.5-18.5,26.2-51.7,49-64.9
	c22.4-13,55-3.2,80.7-10c24.8-6.6,48-31.6,74.9-31.6c26.9,0,50.1,25,74.9,31.6c25.7,6.9,58.3-3,80.7,10c22.8,13.2,30.5,46.5,49,64.9
	c18.5,18.5,51.7,26.2,65,49c13,22.4,3.2,55,10,80.7C684.3,339.5,709.3,362.7,709.3,389.6"/>
<path id="margen_6_" class="st2" d="M398.1,703.9c-16.6,0-31.5-8.8-46-17.4c-10.2-6-19.8-11.7-29.7-14.3
	c-10.4-2.8-22.5-2.7-34.1-2.7c-16.5,0.1-33.6,0.2-47.3-7.7c-13.9-8-22.4-23-30.6-37.5c-5.7-10-11.5-20.4-19-27.9
	c-7.5-7.5-17.8-13.3-27.9-19c-14.5-8.2-29.5-16.7-37.5-30.6c-7.9-13.7-7.8-30.8-7.7-47.3c0.1-11.6,0.2-23.7-2.6-34.1
	c-2.6-9.9-8.3-19.5-14.3-29.7c-8.6-14.5-17.4-29.4-17.4-46c0-16.6,8.8-31.5,17.4-46c6-10.2,11.7-19.8,14.3-29.7
	c2.8-10.5,2.7-22.5,2.6-34.1c-0.1-16.5-0.2-33.7,7.7-47.3c8.1-13.9,23.1-22.4,37.6-30.6c10-5.7,20.4-11.5,27.9-19
	c7.5-7.5,13.3-17.8,19-27.9c8.2-14.5,16.7-29.5,30.6-37.5c13.7-7.9,30.8-7.8,47.3-7.7c11.6,0.1,23.7,0.2,34.1-2.6
	c9.9-2.6,19.5-8.3,29.7-14.3c14.5-8.6,29.5-17.4,46-17.4c16.5,0,31.5,8.8,46,17.4c10.2,6,19.8,11.7,29.7,14.3
	c10.5,2.8,22.5,2.7,34.1,2.6c16.6-0.1,33.6-0.2,47.3,7.7c14,8.1,22.4,23,30.6,37.5c5.7,10,11.5,20.4,19,27.9
	c7.5,7.5,17.8,13.3,27.9,19c14.5,8.2,29.5,16.7,37.5,30.6c7.9,13.7,7.8,30.8,7.7,47.3c-0.1,11.6-0.2,23.6,2.6,34.1
	c2.6,9.9,8.3,19.5,14.3,29.7c8.5,14.5,17.4,29.5,17.4,46c0,16.5-8.8,31.5-17.4,46c-6,10.2-11.7,19.8-14.3,29.7
	c-2.8,10.4-2.7,22.5-2.6,34.1c0.1,16.5,0.2,33.6-7.7,47.3c-8,13.9-23,22.4-37.5,30.6c-10,5.7-20.4,11.5-27.9,19
	c-7.5,7.5-13.3,17.8-19,27.9c-8.2,14.5-16.7,29.5-30.6,37.5c-13.7,7.9-30.8,7.8-47.3,7.7c-11.6-0.1-23.7-0.1-34.1,2.7
	c-9.9,2.7-19.5,8.3-29.7,14.3C429.6,695,414.7,703.9,398.1,703.9 M294.1,663.4c10.2,0,20.4,0.3,29.9,2.9c10.7,2.9,21.1,9,31.2,15
	c13.8,8.1,28,16.5,42.9,16.5c14.9,0,29.1-8.4,42.9-16.5c10.1-6,20.5-12.1,31.2-15c11.2-3,23.7-2.9,35.8-2.8
	c16.5,0.1,32,0.2,44.2-6.9c12.5-7.2,20.6-21.5,28.3-35.3c5.9-10.4,11.9-21.1,20-29.2c8-8,18.8-14.1,29.2-20
	c13.8-7.8,28-15.8,35.3-28.3c7.1-12.3,7-27.8,6.9-44.2c-0.1-12.1-0.2-24.5,2.8-35.8c2.9-10.7,9-21.1,15-31.2
	c8.1-13.8,16.5-28,16.5-42.9c0-14.9-8.4-29.1-16.5-42.9c-6-10.1-12.1-20.5-15-31.2c-3-11.2-2.9-23.7-2.8-35.7
	c0.1-16.5,0.2-32-6.9-44.2c-7.2-12.5-21.5-20.6-35.2-28.3c-10.4-5.9-21.1-11.9-29.2-20c-8.1-8.1-14.2-18.8-20-29.2
	c-7.8-13.8-15.8-28-28.3-35.2c-12.3-7.1-27.8-7-44.2-6.9c-12,0.1-24.5,0.2-35.8-2.8c-10.7-2.9-21.1-9-31.2-15
	c-13.8-8.1-28-16.5-42.9-16.5c-14.9,0-29.1,8.4-42.9,16.5c-10.1,6-20.5,12.1-31.2,15c-11.2,3-23.7,2.9-35.8,2.8
	c-16.5-0.1-32-0.2-44.2,6.9c-12.5,7.2-20.5,21.5-28.3,35.2c-5.9,10.4-11.9,21.1-20,29.2c-8,8.1-18.8,14.1-29.2,20
	c-13.8,7.8-28,15.9-35.2,28.4c-7.1,12.3-7,27.8-6.9,44.2c0.1,12.1,0.2,24.5-2.8,35.7c-2.9,10.7-9,21.1-15,31.2
	c-8.1,13.8-16.6,28-16.6,42.9c0,14.9,8.4,29.1,16.6,42.9c6,10.1,12.1,20.5,15,31.2c3,11.2,2.9,23.7,2.8,35.8
	c-0.1,16.4-0.2,32,6.9,44.2c7.2,12.5,21.5,20.5,35.2,28.3c10.4,5.9,21.1,12,29.2,20c8.1,8.1,14.2,18.8,20,29.2
	c7.8,13.8,15.8,28,28.3,35.3c12.3,7.1,27.8,7,44.2,6.9C290.2,663.4,292.2,663.4,294.1,663.4"/>
<g>
	<rect x="152.1" y="460.5" class="st3" width="492.2" height="4.8"/>
</g>
<g>
	<rect x="151.9" y="534.4" class="st3" width="492.2" height="4.8"/>
</g>
<g id="industrias_6_">
	<rect x="178.1" y="490" class="st4" width="2.1" height="24.1"/>
	<polygon class="st4" points="201.7,510.6 201.7,510.6 201.7,490 203.8,490 203.8,514 201.3,514 192.4,493.4 192.3,493.4 192.3,514 
		190.2,514 190.2,490 192.8,490 	"/>
	<path class="st4" d="M213.7,490h4.3c2.7,0,5.2,0.1,7.1,2.3c1.6,1.9,2.3,5.5,2.3,7.9c0,2.7,0.1,6.4-0.9,9c-1.5,4.1-4.1,4.9-8.1,4.9
		h-4.7L213.7,490L213.7,490L213.7,490z M215.8,512.2h2.5c1.2,0,2.6,0,3.7-0.5c3.2-1.5,3.4-6.8,3.4-9.7c0-3,0.1-7.9-3.1-9.6
		c-1.2-0.7-3.2-0.6-4.6-0.5h-1.8L215.8,512.2L215.8,512.2z"/>
	<path class="st4" d="M237.1,490h2.1v17.5c0,3.4,0.8,5.3,4.4,5.3c3.8,0,4.6-2.3,4.6-5.5V490h2.1v16.8c0,4.7-1.4,7.9-6.6,7.9
		c-4.6,0-6.6-2.5-6.6-6.9L237.1,490L237.1,490L237.1,490z"/>
	<path class="st4" d="M266.7,500.9c3.5,1.5,6.2,2.6,6.2,7c0,4.1-2.7,6.8-6.9,6.8c-4.4,0-6.7-3.1-6.6-7.4h2.1c-0.1,3,1.2,5.5,4.5,5.5
		c2.9,0,4.8-1.9,4.8-4.8c0-3.6-2.6-4.2-5.4-5.3c-3.2-1.3-5.5-2.8-5.5-6.6c0-3.9,2.3-6.6,6.3-6.6c3.8,0,6.2,2.6,6.1,6.4h-2
		c0.1-2.7-1.5-4.5-4.1-4.5c-2.7,0-4.1,2-4.1,4.6c0,2.4,0.8,3.3,2.9,4.3L266.7,500.9z"/>
	<polygon class="st4" points="280.2,491.8 280.2,490 293.2,490 293.2,491.8 287.8,491.8 287.8,514 285.7,514 285.7,491.8 	"/>
	<path class="st4" d="M303.4,502.7V514h-2.1V490h4.7c4.4,0,7.4,1.3,7.4,6.2c0,2.3-1,5.1-3.5,5.6v0c2.8,0.7,3.2,2.9,3.2,5.9
		c0,1.2-0.1,5.4,1.1,6.1v0.3h-2.3c-0.9-2-0.8-6.1-1-7.9c-0.2-3.2-2.6-3.5-5.4-3.5L303.4,502.7L303.4,502.7z M303.4,500.8h3.7
		c0.7,0,4.2-0.2,4.2-4.6c0-3.5-1.6-4.5-4.9-4.5h-3L303.4,500.8L303.4,500.8z"/>
	<rect x="323.4" y="490" class="st4" width="2.1" height="24.1"/>
	<path class="st4" d="M342.7,490l6.4,24.1H347l-1.9-7.4h-7.3l-2,7.4h-2l6.5-24.1L342.7,490L342.7,490z M344.7,504.7l-3.2-12.2h-0.1
		l-3.2,12.2H344.7z"/>
	<path class="st4" d="M363.6,500.9c3.5,1.5,6.2,2.6,6.2,7c0,4.1-2.7,6.8-6.9,6.8c-4.4,0-6.7-3.1-6.6-7.4h2.1c0,3,1.2,5.5,4.5,5.5
		c2.9,0,4.8-1.9,4.8-4.8c0-3.6-2.6-4.2-5.4-5.3c-3.2-1.3-5.5-2.8-5.5-6.6c0-3.9,2.3-6.6,6.2-6.6c3.8,0,6.2,2.6,6.1,6.4h-2
		c0.1-2.7-1.5-4.5-4.1-4.5c-2.7,0-4.1,2-4.1,4.6c0,2.4,0.8,3.3,2.9,4.3L363.6,500.9z"/>
	<path class="st4" d="M398.3,490l6.5,24.1h-2.1l-1.9-7.4h-7.3l-2,7.4h-2l6.5-24.1L398.3,490L398.3,490z M400.3,504.7l-3.2-12.2h-0.1
		l-3.2,12.2H400.3z"/>
	<polygon class="st4" points="413,514 413,490 415.1,490 415.1,512.2 424,512.2 424,514 	"/>
	<rect x="432.9" y="490" class="st4" width="2.1" height="24.1"/>
	<polygon class="st4" points="447.4,514 445.2,514 445.2,490 448.8,490 454.5,510.9 454.5,510.9 460.4,490 463.8,490 463.8,514 
		461.7,514 461.7,492 461.6,492 455.7,514 453.5,514 447.4,492 447.4,492 	"/>
	<polygon class="st4" points="473.7,514 473.7,490 484.6,490 484.6,491.8 475.8,491.8 475.8,500.5 483.8,500.5 483.8,502.4 
		475.8,502.4 475.8,512.2 484.8,512.2 484.8,514 	"/>
	<polygon class="st4" points="504.9,510.6 505,510.6 505,490 507,490 507,514 504.5,514 495.6,493.4 495.5,493.4 495.5,514 
		493.4,514 493.4,490 496,490 	"/>
	<polygon class="st4" points="515.3,491.8 515.3,490 528.3,490 528.3,491.8 522.8,491.8 522.8,514 520.7,514 520.7,491.8 	"/>
	<rect x="536.9" y="490" class="st4" width="2.1" height="24.1"/>
	<path class="st4" d="M562.7,505.9c0.1,4.1-2,8.7-6.8,8.7c-7,0-7-8.2-7-13.3c0-5,0.6-12,7-12c4.3,0,6.5,3.4,6.6,7.5h-2.1
		c-0.2-2.9-1.3-5.7-4.5-5.7c-5.1,0-4.9,7.3-4.9,10.6c0,3.7-0.2,10.9,5.1,10.9c3.6,0,4.4-3.9,4.5-6.9H562.7z"/>
	<rect x="572.8" y="490" class="st4" width="2.1" height="24.1"/>
	<path class="st4" d="M592.1,490l6.5,24.1h-2.1l-1.9-7.4h-7.3l-1.9,7.4h-2l6.4-24.1L592.1,490L592.1,490z M594.1,504.7l-3.2-12.2
		h-0.1l-3.2,12.2H594.1z"/>
	<path class="st4" d="M613,500.9c3.5,1.5,6.2,2.6,6.2,7c0,4.1-2.7,6.8-6.9,6.8c-4.4,0-6.7-3.1-6.6-7.4h2c0,3,1.2,5.5,4.5,5.5
		c2.9,0,4.8-1.9,4.8-4.8c0-3.6-2.6-4.2-5.4-5.3c-3.2-1.3-5.6-2.8-5.6-6.6c0-3.9,2.4-6.6,6.3-6.6c3.8,0,6.2,2.6,6.1,6.4h-2
		c0.1-2.7-1.5-4.5-4.1-4.5c-2.7,0-4.2,2-4.2,4.6c0,2.4,0.8,3.3,2.9,4.3L613,500.9z"/>
</g>
<path class="st0" d="M398.2,348.3l-11.5,94.1H354l1.5-11.9h-0.6c-7,9.2-15.7,13.8-26,13.8c-3.4,0-6.5-0.4-9.2-1.1
	c-2.7-0.8-5.1-2-7.4-3.8c-2.2-1.8-3.9-4.1-5.1-6.9c-1.2-2.9-2-6.4-2.5-10.6c-0.5-4.1-0.3-9,0.4-14.7l7.1-58.9h32.5l-5.7,46.8
	c-0.3,2.7-0.6,5-0.8,6.8c-0.2,1.8-0.3,3.5-0.3,5.1c0,1.7,0,3,0.2,3.9c0.2,1,0.5,1.8,1,2.5c0.4,0.7,1,1.2,1.6,1.4
	c0.6,0.3,1.5,0.4,2.5,0.4c2.2,0,4.5-1.2,7.1-3.5c2.5-2.4,4.7-5.2,6.5-8.6c1.8-3.4,2.9-6.6,3.2-9.7l5.5-45.1L398.2,348.3L398.2,348.3
	z"/>
<path class="st0" d="M426.4,417.8c4.1,2.1,7.9,3.1,11.4,3.1c0.9,0,1.7-0.1,2.4-0.2c0.7-0.1,1.3-0.3,1.7-0.6c0.5-0.3,0.8-0.6,1.1-1
	c0.2-0.4,0.4-0.8,0.4-1.3c0-1.1-0.7-2.2-2.2-3.2c-1.5-1-5.2-3.1-11.1-6.3c-7.9-4.2-13.7-8.5-17.4-12.8c-3.6-4.3-5.4-9.8-5.4-16.3
	c0-6.4,1.6-12.2,4.8-17.2c3.2-5,7.5-8.9,13-11.6s11.5-4,18.2-4c6.8,0,13.2,1.4,19.2,4.1c6,2.8,11.1,6.7,15.2,11.9l-19,17.7
	c-2.2-3.4-4.7-5.8-7.4-7.3c-2.6-1.5-5.1-2.2-7.4-2.3c-1.5,0-2.8,0.3-4,1c-1.2,0.7-1.8,1.8-1.8,3.1c0,1,1,2.2,2.8,3.5
	c1.9,1.4,5,3.1,9.4,5.3c3.5,1.8,6.5,3.4,8.9,4.9c2.4,1.5,4.7,3.2,6.8,5c2.1,1.8,3.7,3.6,4.9,5.6c1.2,2,2.1,4.2,2.7,6.6
	c0.7,2.4,1,5.1,1,8c0,9.1-3.4,16.5-10.2,22.2c-6.8,5.7-16,8.6-27.6,8.6c-7,0-14-1.4-21-4.2c-6.9-2.8-12.6-6.8-16.9-11.9l17.2-18.4
	C418.9,413,422.3,415.7,426.4,417.8"/>
<path class="st0" d="M540,437.5c-8.5,4.5-17.2,6.8-26.2,6.8c-2.4,0-4.6-0.2-6.7-0.6c-2.1-0.4-4.1-1.1-6.1-2.1c-2-1-3.7-2.2-5.1-3.9
	c-1.4-1.6-2.6-3.5-3.7-5.9s-1.7-5-1.9-8.1c-0.2-3.1-0.1-6.7,0.2-10.7l4.6-38.7H486l3.2-26.1h9.2l3.4-26.6l33.5-6.5l-4.1,33.1h17.7
	l-3.2,26.1h-17.7l-4.1,34.8c-0.2,2-0.1,3.5,0.5,4.5c0.6,1,1.5,1.6,2.8,1.6c2,0,4.5-0.7,7.4-2.1L540,437.5z"/>
<path class="st0" d="M633.1,357.2c7.2,7.2,10.9,17.2,10.9,30.1c0,6.1-0.6,11.9-1.9,17.4c-1.3,5.5-3.3,10.7-6.1,15.5
	c-2.8,4.8-6.2,9-10.3,12.6c-4.1,3.5-9.1,6.3-15.1,8.4c-6,2-12.7,3.1-20.1,3.1c-12,0-21.7-3.6-28.9-10.9c-7.3-7.2-10.9-17.2-10.9-30
	c0-6.1,0.7-11.9,2.2-17.5c1.5-5.6,3.6-10.8,6.6-15.6c3-4.8,6.5-9,10.6-12.5c4.2-3.6,9.1-6.4,14.8-8.4c5.8-2,12-3.1,18.7-3.1
	C616,346.5,625.8,350,633.1,357.2 M593.6,377.9c-2.2,1.6-4,3.7-5.4,6.2c-1.4,2.6-2.5,5.5-3.2,8.6c-0.8,3.2-1.1,6.4-1.1,9.6
	c0,2.4,0.4,4.6,1,6.3c0.7,1.8,1.5,3.1,2.6,4c1.1,0.9,2.1,1.6,3.1,2c1,0.4,2,0.6,3,0.6c3.4,0,6.4-1.3,9.1-3.9
	c2.7-2.6,4.7-5.8,6.1-9.8c1.4-3.9,2.1-8.1,2.1-12.5c0-2.7-0.3-5-1-6.9c-0.7-1.9-1.6-3.4-2.7-4.3c-1.1-0.9-2.2-1.5-3.2-1.9
	s-2.1-0.5-3.2-0.5C598.2,375.5,595.8,376.4,593.6,377.9"/>
<path class="st0" d="M296.3,348.3l-10,81.7c-4.3,34.8-22.7,52.3-55.3,52.3c-13.6,0-25.4-3-35.5-9.1l10.1-24.6
	c7.4,4.5,15.2,6.8,23.3,6.8c2.8,0,5.2-0.2,7.3-0.6c2.1-0.4,4.1-1.2,6.1-2.4c2-1.2,3.7-2.8,5.1-4.8c1.4-2,2.7-4.7,3.8-8.1
	c1.1-3.3,2-7.3,2.6-12h-0.3c-6.8,9.4-15.2,14.1-25.1,14.1c-4.7,0-8.9-1-12.8-2.9c-3.8-2-6.9-4.5-9.4-7.8c-2.4-3.3-4.3-7.1-5.6-11.4
	c-1.3-4.3-1.9-8.9-1.9-13.7c0-8.6,1.2-16.7,3.6-24.2c2.4-7.5,5.6-13.8,9.6-18.8c4-5.1,8.6-9.1,13.9-12c5.3-2.9,10.7-4.3,16.3-4.3
	c8.8,0,15.6,2.5,20.4,7.5h0.5l0.7-5.5L296.3,348.3L296.3,348.3L296.3,348.3z M252.7,404c3.9-5.6,6.6-13.2,8.1-22.7l0.1-0.6
	c-1.8-1.8-3.6-3.1-5.4-4c-1.9-0.8-4.1-1.2-6.7-1.2c-3.4,0-6.4,1.5-9.2,4.4c-2.8,2.9-4.8,6.3-6.1,10.2c-1.4,3.9-2,7.6-2,11.2
	c0,3.7,0.8,6.5,2.4,8.4c1.6,1.9,3.7,2.8,6.3,2.8C244.6,412.4,248.8,409.6,252.7,404"/>
<path class="st3" d="M281.1,250.2c4.2,3.2,7.5,7.6,9.6,13c2.1,5.5,3.2,11.7,3.2,18.7c0,11.8-2,21.8-5.8,30.1
	c-3.9,8.3-9.8,14.7-17.7,19.1c-7.9,4.5-17.6,6.7-29.1,6.7c-14.9,0-28.1-3-39.5-8.8l15.5-126.4h30.9l-6.9,56.5h0.4
	c3.1-4.2,6.6-7.6,10.7-10c4.1-2.4,8.6-3.7,13.5-3.7C271.8,245.4,276.9,247,281.1,250.2 M253.2,306.9c3.3-2.4,5.7-5.4,7.3-9.2
	c1.6-3.7,2.4-7.9,2.4-12.5c0-3.7-0.8-6.7-2.4-9c-1.5-2.3-3.5-3.4-5.9-3.4c-4.5,0-8.7,2.9-12.6,8.8c-3.9,5.8-6.5,13.9-7.8,24.3v-0.1
	l-0.5,3.9c2.7,0.5,5.2,0.8,7.6,0.8C246,310.5,249.9,309.3,253.2,306.9"/>
<path class="st3" d="M379.2,255.7c6.8,6.8,10.3,16.2,10.3,28.4c0,5.7-0.6,11.1-1.8,16.3c-1.2,5.2-3.1,10-5.7,14.6
	c-2.6,4.6-5.9,8.5-9.7,11.8c-3.8,3.3-8.6,6-14.2,7.9s-12,2.9-18.9,2.9c-11.3,0-20.4-3.4-27.2-10.2c-6.8-6.8-10.3-16.2-10.3-28.2
	c0-5.7,0.7-11.2,2-16.5c1.4-5.3,3.4-10.2,6.2-14.7c2.8-4.5,6.1-8.4,10-11.8c3.9-3.3,8.5-6,14-7.9c5.4-1.9,11.3-2.9,17.6-2.9
	C363.2,245.5,372.4,248.9,379.2,255.7 M342,275.2c-2,1.5-3.7,3.4-5.1,5.9c-1.3,2.4-2.3,5.1-3,8.1c-0.7,3-1.1,6-1.1,9
	c0,2.3,0.3,4.3,1,6c0.7,1.7,1.5,2.9,2.5,3.8c1,0.8,2,1.5,3,1.8c1,0.4,1.9,0.6,2.9,0.6c3.2,0,6-1.2,8.6-3.6c2.5-2.4,4.4-5.5,5.7-9.2
	c1.3-3.7,1.9-7.6,1.9-11.8c0-2.5-0.3-4.7-1-6.5c-0.6-1.8-1.5-3.2-2.5-4c-1-0.9-2.1-1.5-3-1.8s-2-0.5-3-0.5
	C346.4,272.9,344.1,273.7,342,275.2"/>
<path class="st3" d="M482.6,254.2c3.3,5.8,4.2,14.8,2.6,27.1l-7,54.6h-30.7l6.1-46.2c0.8-6,1-10.2,0.4-12.9
	c-0.5-2.6-1.9-3.9-4.1-3.9c-1.7,0-3.6,0.6-5.4,1.8c-1.8,1.2-3.6,2.9-5.3,5.3c-1.7,2.4-3.3,5.6-4.7,9.6c-1.4,4-2.4,8.7-3.1,14
	l-4,32.3h-30.8l10.9-88.6h30.8l-1.4,11.3h0.4c7.6-8.7,17-13.1,28.3-13.1C473.5,245.5,479.3,248.4,482.6,254.2"/>
</svg>
