<?xml version="1.0" encoding="utf-8"?>
<!-- Generator: Adobe Illustrator 24.1.1, SVG Export Plug-In . SVG Version: 6.00 Build 0)  -->
<svg version="1.1" xmlns="http://www.w3.org/2000/svg" xmlns:xlink="http://www.w3.org/1999/xlink" x="0px" y="0px"
	 viewBox="0 0 800 800" style="enable-background:new 0 0 800 800;" xml:space="preserve">
<style type="text/css">
	.st0{fill:#F7F7F9;}
</style>
<g id="Capa_1">
</g>
<g id="bg_pos">
	<g id="Capa_7_copia">
		<path class="st0" d="M766.5,399.5c0-31.7-29.5-59.11-37.31-88.35c-8.08-30.25,3.51-68.69-11.8-95.18
			c-15.56-26.88-54.79-35.95-76.6-57.76c-21.81-21.81-30.9-61.03-57.76-76.59c-26.49-15.32-64.92-3.73-95.18-11.82
			c-29.24-7.82-56.65-37.3-88.36-37.3c-31.7,0-59.11,29.48-88.35,37.3c-30.25,8.09-68.69-3.51-95.17,11.82
			c-26.88,15.56-35.95,54.78-57.76,76.59c-21.81,21.8-61.04,30.88-76.58,57.75c-15.33,26.49-3.74,64.93-11.82,95.18
			c-7.82,29.24-37.3,56.65-37.3,88.35c0,31.72,29.48,59.13,37.3,88.36c8.09,30.25-3.52,68.69,11.82,95.18
			c15.55,26.88,54.78,35.96,76.58,57.77c21.81,21.8,30.88,61.03,57.75,76.58c26.49,15.32,64.92,3.74,95.18,11.81
			c29.24,7.83,56.65,37.31,88.35,37.31c31.71,0,59.12-29.48,88.36-37.31c30.25-8.07,68.69,3.5,95.18-11.8
			c26.86-15.56,35.95-54.78,57.76-76.59c21.81-21.81,61.03-30.88,76.59-57.75c15.32-26.5,3.73-64.93,11.81-95.19
			C737,458.62,766.5,431.21,766.5,399.5z M722.91,486.17c-7.92,29.68,3.44,67.38-11.59,93.37c-15.26,26.36-53.74,35.26-75.13,56.65
			c-21.39,21.39-30.31,59.87-56.66,75.13c-25.98,15.02-63.69,3.66-93.36,11.58c-28.69,7.68-55.57,36.6-86.68,36.6
			c-31.1,0-57.99-28.92-86.67-36.6c-29.68-7.92-67.38,3.44-93.37-11.59c-26.36-15.25-35.26-53.74-56.65-75.12
			c-21.39-21.39-59.87-30.3-75.13-56.67c-15.04-25.98-3.66-63.69-11.59-93.36c-7.68-28.67-36.59-55.56-36.59-86.67
			c0-31.1,28.92-57.99,36.59-86.67c7.93-29.68-3.44-67.39,11.6-93.37c15.25-26.36,53.73-35.27,75.12-56.65
			c21.39-21.39,30.3-59.87,56.66-75.13c25.98-15.03,63.68-3.65,93.36-11.59c28.68-7.67,55.57-36.59,86.67-36.59
			c31.11,0,57.99,28.92,86.68,36.59c29.68,7.94,67.38-3.43,93.36,11.6c26.35,15.26,35.27,53.73,56.66,75.13
			c21.39,21.39,59.87,30.29,75.14,56.66c15.02,25.98,3.65,63.68,11.58,93.36c7.66,28.68,36.6,55.57,36.6,86.67
			C759.5,430.61,730.57,457.5,722.91,486.17z"/>
		<path class="st0" d="M712.32,351.02c-6.35-10.74-12.33-20.87-15.11-31.3c-2.94-11.01-2.85-23.68-2.78-35.96
			c0.13-17.42,0.24-35.43-8.11-49.86c-8.49-14.69-24.28-23.62-39.54-32.26c-10.59-5.98-21.51-12.15-29.4-20.03
			c-7.86-7.87-14.05-18.8-20.03-29.37c-8.63-15.28-17.56-31.07-32.24-39.57c-14.44-8.35-32.42-8.23-49.87-8.12
			c-12.27,0.08-24.95,0.17-35.96-2.77c-10.43-2.79-20.56-8.77-31.3-15.11c-15.26-9.01-31.04-18.33-48.48-18.33
			c-17.45,0-33.23,9.32-48.49,18.33c-10.73,6.34-20.87,12.32-31.3,15.11c-11.01,2.94-23.7,2.86-35.96,2.77
			c-17.42-0.13-35.43-0.24-49.86,8.11c-14.69,8.5-23.62,24.29-32.25,39.57c-5.98,10.57-12.15,21.5-20.03,29.38
			c-7.87,7.87-18.8,14.04-29.37,20.03c-15.28,8.63-31.08,17.56-39.56,32.24c-8.36,14.43-8.23,32.45-8.12,49.87
			c0.07,12.28,0.17,24.96-2.77,35.96c-2.8,10.43-8.77,20.56-15.11,31.3c-9.01,15.26-18.34,31.04-18.34,48.48
			c0,17.44,9.33,33.22,18.34,48.48c6.34,10.74,12.31,20.87,15.11,31.29c2.94,11.01,2.84,23.69,2.77,35.97
			c-0.12,17.41-0.25,35.43,8.1,49.86c8.5,14.69,24.29,23.61,39.56,32.25c10.57,5.97,21.51,12.15,29.38,20.03
			c7.87,7.87,14.05,18.81,20.03,29.38c8.63,15.27,17.56,31.07,32.25,39.56c14.43,8.36,32.45,8.24,49.86,8.11
			c12.28-0.07,24.97-0.17,35.96,2.78c10.43,2.79,20.57,8.77,31.3,15.1c15.26,9.01,31.04,18.33,48.49,18.33
			c17.44,0,33.21-9.31,48.48-18.33c10.74-6.34,20.87-12.31,31.3-15.1c11-2.95,23.68-2.86,35.96-2.78
			c17.4,0.13,35.43,0.25,49.86-8.11c14.68-8.49,23.62-24.28,32.25-39.56c5.97-10.57,12.17-21.51,20.03-29.38
			c7.88-7.86,18.81-14.06,29.39-20.03c15.27-8.63,31.06-17.55,39.55-32.24c8.36-14.43,8.24-32.46,8.11-49.87
			c-0.07-12.28-0.16-24.96,2.78-35.97c2.78-10.42,8.77-20.56,15.11-31.29c9.01-15.26,18.32-31.04,18.32-48.48
			C730.64,382.06,721.33,366.28,712.32,351.02z M706.78,444.72c-6.27,10.63-12.76,21.63-15.77,32.91
			c-3.19,11.85-3.09,24.97-3.01,37.67c0.12,17.33,0.23,33.68-7.25,46.61c-7.61,13.16-22.63,21.65-37.16,29.86
			c-10.95,6.19-22.25,12.59-30.76,21.08c-8.49,8.5-14.89,19.81-21.08,30.75c-8.21,14.54-16.7,29.55-29.87,37.17
			c-12.92,7.48-29.28,7.35-46.6,7.24c-12.68-0.07-25.82-0.17-37.66,3.01c-11.27,3.02-22.27,9.5-32.9,15.78
			c-14.53,8.57-29.53,17.44-45.21,17.44c-15.69,0-30.7-8.86-45.22-17.44c-10.64-6.28-21.64-12.76-32.91-15.78
			c-9.91-2.67-20.74-3.04-31.45-3.04c-2.08,0-4.16,0.02-6.23,0.03c-17.32,0.14-33.68,0.24-46.6-7.24
			c-13.16-7.62-21.66-22.63-29.87-37.17c-6.19-10.94-12.59-22.25-21.08-30.75c-8.49-8.49-19.82-14.89-30.76-21.08
			c-14.53-8.21-29.54-16.7-37.16-29.87c-7.46-12.91-7.36-29.28-7.25-46.6c0.09-12.7,0.17-25.82-2.99-37.67
			c-3.02-11.28-9.5-22.28-15.79-32.91c-8.56-14.52-17.43-29.52-17.43-45.21c0-15.69,8.87-30.69,17.43-45.22
			c6.29-10.63,12.77-21.63,15.79-32.91c3.17-11.84,3.08-24.97,2.99-37.66c-0.11-17.33-0.22-33.68,7.25-46.6
			c7.62-13.18,22.64-21.67,37.17-29.88c10.94-6.18,22.27-12.58,30.76-21.08c8.5-8.49,14.89-19.81,21.08-30.76
			c8.21-14.52,16.71-29.54,29.87-37.16c12.92-7.47,29.27-7.36,46.6-7.25c12.71,0.1,25.84,0.17,37.67-2.99
			c11.27-3.02,22.28-9.51,32.91-15.79c14.52-8.57,29.52-17.43,45.22-17.43c15.68,0,30.68,8.86,45.21,17.43
			c10.63,6.28,21.63,12.77,32.9,15.79c11.84,3.16,24.98,3.09,37.66,2.99c17.33-0.12,33.68-0.22,46.6,7.25
			c13.18,7.62,21.66,22.64,29.87,37.16c6.19,10.94,12.59,22.27,21.08,30.76c8.5,8.5,19.81,14.89,30.77,21.08
			c14.52,8.21,29.54,16.71,37.16,29.87c7.49,12.92,7.36,29.28,7.24,46.6c-0.08,12.69-0.18,25.83,3.01,37.66
			c3.01,11.28,9.5,22.27,15.78,32.91c8.57,14.52,17.43,29.52,17.43,45.21C724.22,415.19,715.35,430.2,706.78,444.72z"/>
	</g>
	<g id="industrias_copia">
		<g>
			<path class="st0" d="M170.39,531.21h-3.45v-26.63h3.45V531.21z"/>
		</g>
		<g>
			<path class="st0" d="M195.38,531.21h-3.72l-8.43-19.48v19.48h-3.45v-26.63h3.79l0.16,0.38l8.2,19.14v-19.52h3.45V531.21z"/>
		</g>
		<g>
			<path class="st0" d="M210.15,531.21h-5.59v-26.63h5.15c3.05,0,5.75,0.2,7.98,2.6c1.79,2.16,2.6,6.07,2.6,8.79v0.59
				c0.01,2.85,0.01,6.4-1.02,9.08C217.61,530.27,214.55,531.21,210.15,531.21z M208.01,527.99h2.01c1.22,0,2.61,0,3.63-0.48
				c3.2-1.47,3.2-7.41,3.2-9.65v-0.16c0-3.1,0.01-7.78-2.96-9.41c-0.67-0.36-1.69-0.53-3.14-0.53c-0.5,0-0.99,0.02-1.44,0.04h-1.3
				V527.99z"/>
		</g>
		<g>
			<path class="st0" d="M236.7,531.82c-5,0-7.53-2.67-7.53-7.94v-19.3h3.46v19.04c0,3.77,0.98,4.98,4.01,4.98
				c3.07,0,4.21-1.4,4.21-5.19v-18.84h3.46v18.29C244.3,526.7,243.51,531.82,236.7,531.82z"/>
		</g>
		<g>
			<path class="st0" d="M260.23,531.82c-2.23,0-4.11-0.72-5.44-2.08c-1.48-1.51-2.22-3.7-2.16-6.34l0.01-0.61h3.4l-0.01,0.63
				c-0.01,1.28,0.2,3.03,1.3,4.13c0.69,0.69,1.64,1.04,2.85,1.04c2.76,0,4.48-1.72,4.48-4.48c0-3-1.85-3.69-4.4-4.65l-0.89-0.34
				c-3.17-1.25-6.25-2.86-6.25-7.52c0-4.63,2.83-7.63,7.23-7.63c2.09,0,3.88,0.7,5.16,2.02c1.3,1.33,1.98,3.23,1.93,5.35l-0.01,0.61
				h-3.39l0.03-0.65c0.07-1.28-0.28-2.34-0.97-3.07c-0.66-0.69-1.62-1.06-2.77-1.06c-2.76,0-3.74,2.21-3.74,4.27
				c0,2.17,0.55,2.97,2.71,3.9l1.95,0.82c3.71,1.55,6.88,2.88,6.88,7.88C268.13,528.77,265.03,531.82,260.23,531.82z"/>
		</g>
		<g>
			<path class="st0" d="M283.84,531.21h-3.45v-23.42h-5.76v-3.22h14.96v3.22h-5.75V531.21z"/>
		</g>
		<g>
			<path class="st0" d="M311.66,531.21h-3.43l-0.16-0.37c-0.79-1.79-0.91-4.83-0.99-7.06c-0.02-0.57-0.04-1.08-0.07-1.48
				c-0.19-2.59-1.77-3.04-5.03-3.04h-1.65v11.95h-3.46v-26.63h5.55c3.62,0,8.44,0.74,8.44,7.12c0,2.15-0.75,4.76-2.75,5.99
				c2.16,1.25,2.39,3.74,2.41,6.21c0.01,0.18,0.01,0.47,0.02,0.83c0.05,3.05,0.32,4.73,0.8,5l0.33,0.18V531.21z M300.32,516.04h3.24
				c0.64,0,3.83-0.2,3.83-4.18c0-3.08-1.1-4.07-4.52-4.07h-2.55V516.04z"/>
		</g>
		<g>
			<path class="st0" d="M323.56,531.21h-3.46v-26.63h3.46V531.21z"/>
		</g>
		<g>
			<path class="st0" d="M348.69,531.21h-3.53l-2-7.82h-6.74l-2.07,7.82h-3.44l7.15-26.63h3.49L348.69,531.21z M337.21,520.17h5.15
				l-2.57-9.84L337.21,520.17z"/>
		</g>
		<g>
			<path class="st0" d="M362.33,531.82c-2.22,0-4.1-0.72-5.43-2.08c-1.48-1.52-2.22-3.7-2.17-6.34l0.01-0.61h3.42l0,0.63
				c-0.02,1.28,0.19,3.02,1.29,4.13c0.69,0.69,1.65,1.04,2.85,1.04c2.77,0,4.48-1.72,4.48-4.48c0-3-1.85-3.69-4.4-4.66l-0.89-0.34
				c-3.16-1.25-6.25-2.86-6.25-7.52c0-4.63,2.83-7.63,7.23-7.63c2.08,0,3.88,0.7,5.16,2.02c1.3,1.33,1.98,3.23,1.93,5.35l-0.01,0.61
				h-3.41l0.03-0.65c0.06-1.28-0.27-2.34-0.98-3.07c-0.65-0.69-1.61-1.05-2.76-1.05c-2.76,0-3.74,2.21-3.74,4.27
				c0,2.17,0.55,2.97,2.7,3.9l1.96,0.82c3.71,1.55,6.88,2.88,6.88,7.88C370.23,528.77,367.13,531.82,362.33,531.82z"/>
		</g>
		<g>
			<path class="st0" d="M407.32,531.21h-3.53l-2-7.82h-6.74l-2.07,7.82h-3.44l7.14-26.63h3.5L407.32,531.21z M395.84,520.17H401
				l-2.58-9.86L395.84,520.17z"/>
		</g>
		<g>
			<path class="st0" d="M427.38,531.21h-12.86v-26.63h3.46v23.41h9.41V531.21z"/>
		</g>
		<g>
			<path class="st0" d="M438.93,531.21h-3.45v-26.63h3.45V531.21z"/>
		</g>
		<g>
			<path class="st0" d="M469.33,531.21h-3.46v-19.33l-5.25,19.33h-3.29L452,511.82v19.38h-3.46v-26.63h4.8l5.59,20.52l5.71-20.52
				h4.69V531.21z"/>
		</g>
		<g>
			<path class="st0" d="M491.47,531.21h-12.93v-26.63h12.75v3.22h-9.3v7.89h8.46v3.21h-8.46v9.1h9.47V531.21z"/>
		</g>
		<g>
			<path class="st0" d="M514.89,531.21h-3.71l-8.44-19.49v19.49h-3.44v-26.63h3.77l0.15,0.38l8.22,19.14v-19.52h3.45V531.21z"/>
		</g>
		<g>
			<path class="st0" d="M531.52,531.21h-3.46v-23.42h-5.75v-3.22h14.96v3.22h-5.75V531.21z"/>
		</g>
		<g>
			<path class="st0" d="M548.55,531.21h-3.46v-26.63h3.46V531.21z"/>
		</g>
		<g>
			<path class="st0" d="M565.79,531.82c-7.97,0-7.97-9.16-7.97-14.63c0-3.61,0-13.22,8.04-13.22c4.52,0,7.48,3.35,7.52,8.53l0,0.63
				h-3.41l-0.04-0.58c-0.25-3.56-1.65-5.37-4.15-5.37c-1.04,0-1.87,0.32-2.53,0.99c-2,2-1.99,6.65-1.98,9.15v0.77
				c-0.01,2.78-0.01,7.42,2.02,9.45c0.7,0.71,1.59,1.05,2.72,1.05c3.22,0,4.02-3.6,4.12-6.62l0.02-0.61h3.42l0.01,0.61
				c0.07,3.06-0.93,5.95-2.69,7.74C569.57,531.09,567.8,531.82,565.79,531.82z"/>
		</g>
		<g>
			<path class="st0" d="M586.39,531.21h-3.46v-26.63h3.46V531.21z"/>
		</g>
		<g>
			<path class="st0" d="M611.53,531.21h-3.54l-2.01-7.82h-6.74l-2.07,7.82h-3.43l7.14-26.63h3.51L611.53,531.21z M600.05,520.17
				h5.15l-2.57-9.84L600.05,520.17z"/>
		</g>
		<g>
			<path class="st0" d="M625.18,531.82c-2.23,0-4.11-0.72-5.44-2.08c-1.48-1.51-2.22-3.7-2.16-6.34l0.01-0.61h3.4l-0.01,0.63
				c-0.01,1.28,0.2,3.03,1.3,4.14c0.69,0.69,1.64,1.04,2.85,1.04c2.77,0,4.49-1.72,4.49-4.48c0-3-1.85-3.69-4.4-4.66l-0.88-0.34
				c-3.16-1.25-6.26-2.86-6.26-7.52c0-4.63,2.84-7.63,7.23-7.63c2.1,0,3.88,0.7,5.18,2.03c1.29,1.33,1.97,3.23,1.9,5.35l-0.01,0.61
				h-3.4l0.03-0.65c0.06-1.28-0.27-2.33-0.98-3.07c-0.65-0.69-1.61-1.06-2.76-1.06c-2.76,0-3.74,2.21-3.74,4.27
				c0,2.17,0.55,2.97,2.7,3.9l1.95,0.81c3.72,1.56,6.89,2.88,6.89,7.88C633.07,528.77,629.97,531.82,625.18,531.82z"/>
		</g>
	</g>
	<g id="gusto_copia">
		<path class="st0" d="M399.6,355.97l-12.15,99.16h-34.41l1.58-12.55h-0.69c-7.38,9.69-16.51,14.54-27.38,14.54
			c-3.63,0-6.85-0.4-9.7-1.18c-2.83-0.8-5.41-2.11-7.76-3.96c-2.33-1.84-4.13-4.28-5.39-7.32c-1.25-3.03-2.12-6.74-2.61-11.12
			c-0.5-4.38-0.35-9.55,0.44-15.48l7.51-62.09h34.21l-6.03,49.33c-0.34,2.9-0.59,5.29-0.79,7.17c-0.19,1.88-0.31,3.68-0.34,5.43
			c-0.04,1.74,0.05,3.12,0.24,4.1c0.19,1,0.52,1.85,1,2.58c0.45,0.72,1.04,1.23,1.72,1.52c0.7,0.3,1.58,0.45,2.63,0.45
			c2.3,0,4.8-1.24,7.46-3.7c2.67-2.48,4.94-5.51,6.82-9.09c1.87-3.61,3.02-7.01,3.41-10.25l5.83-47.55H399.6z"/>
		<path class="st0" d="M429.32,429.13c4.32,2.18,8.32,3.27,12.01,3.27c0.93,0,1.74-0.07,2.47-0.19c0.73-0.14,1.33-0.35,1.83-0.65
			c0.5-0.3,0.87-0.65,1.14-1.04c0.26-0.39,0.39-0.86,0.39-1.39c0-1.18-0.78-2.3-2.32-3.35c-1.55-1.05-5.46-3.27-11.72-6.63
			c-8.36-4.42-14.47-8.91-18.29-13.49c-3.82-4.58-5.73-10.3-5.73-17.16c0-6.79,1.67-12.83,5.04-18.14
			c3.36-5.3,7.91-9.37,13.64-12.21c5.73-2.84,12.13-4.25,19.18-4.25c7.18,0,13.94,1.44,20.28,4.3c6.32,2.87,11.66,7.03,16.01,12.51
			l-20.08,18.68c-2.37-3.55-4.96-6.11-7.76-7.66c-2.8-1.55-5.39-2.35-7.76-2.42c-1.58-0.07-3,0.29-4.25,1.09
			c-1.25,0.79-1.87,1.88-1.87,3.26c0,1.06,1,2.28,3.01,3.7c2.01,1.42,5.29,3.28,9.83,5.58c3.69,1.85,6.83,3.58,9.39,5.2
			c2.57,1.62,4.94,3.36,7.11,5.23c2.18,1.88,3.91,3.86,5.15,5.93c1.24,2.08,2.22,4.38,2.91,6.92c0.69,2.53,1.04,5.35,1.04,8.46
			c0,9.55-3.59,17.35-10.78,23.38c-7.19,6.03-16.87,9.05-29.06,9.05c-7.38,0-14.75-1.49-22.1-4.46
			c-7.34-2.97-13.29-7.14-17.84-12.55l18.19-19.37C421.36,424.17,425.01,426.96,429.32,429.13"/>
		<path class="st0" d="M549,449.99c-8.9,4.75-18.1,7.12-27.58,7.12c-2.51,0-4.86-0.21-7.08-0.64c-2.2-0.44-4.36-1.16-6.47-2.18
			c-2.1-1.02-3.9-2.37-5.39-4.05c-1.48-1.68-2.78-3.74-3.9-6.18c-1.12-2.43-1.8-5.28-2.03-8.56c-0.22-3.25-0.15-7.03,0.25-11.31
			l4.84-40.74h-9.59l3.37-27.48h9.69l3.56-27.98l35.29-6.92l-4.35,34.89h18.69l-3.36,27.48h-18.68l-4.34,36.68
			c-0.27,2.04-0.09,3.62,0.54,4.75c0.64,1.11,1.6,1.68,2.92,1.68c2.11,0,4.71-0.72,7.81-2.17L549,449.99z"/>
		<path class="st0" d="M647.08,365.37c7.64,7.58,11.47,18.17,11.47,31.74c0,6.39-0.66,12.49-1.98,18.29
			c-1.31,5.8-3.44,11.26-6.38,16.36c-2.95,5.11-6.54,9.52-10.82,13.25c-4.28,3.72-9.59,6.67-15.91,8.85
			c-6.33,2.18-13.38,3.27-21.16,3.27c-12.66,0-22.8-3.81-30.46-11.42c-7.64-7.61-11.46-18.14-11.46-31.59
			c0-6.39,0.75-12.54,2.26-18.43c1.52-5.9,3.84-11.36,6.97-16.41c3.13-5.04,6.87-9.44,11.22-13.2c4.36-3.75,9.56-6.71,15.63-8.85
			c6.06-2.14,12.61-3.21,19.67-3.21C629.11,354,639.43,357.79,647.08,365.37 M605.45,387.17c-2.31,1.68-4.2,3.87-5.68,6.57
			c-1.48,2.71-2.63,5.72-3.42,9.05c-0.78,3.34-1.19,6.71-1.19,10.14c0,2.57,0.36,4.8,1.09,6.68c0.72,1.87,1.64,3.29,2.77,4.25
			c1.12,0.95,2.22,1.64,3.3,2.08c1.09,0.42,2.18,0.64,3.22,0.64c3.56,0,6.76-1.35,9.6-4.06c2.83-2.7,4.97-6.12,6.42-10.27
			c1.45-4.15,2.17-8.53,2.17-13.15c0-2.84-0.37-5.28-1.09-7.32c-0.73-2.04-1.66-3.53-2.83-4.5c-1.14-0.96-2.28-1.63-3.4-2.03
			c-1.12-0.39-2.24-0.59-3.36-0.59C610.29,384.65,607.77,385.49,605.45,387.17"/>
		<path class="st0" d="M292.24,355.82l-10.58,86.11c-4.48,36.71-23.9,55.06-58.23,55.06c-14.37,0-26.82-3.2-37.37-9.59l10.58-25.89
			c7.84,4.74,16.02,7.11,24.52,7.11c2.96,0,5.53-0.22,7.71-0.65c2.18-0.42,4.32-1.28,6.43-2.52c2.11-1.25,3.9-2.95,5.39-5.09
			c1.48-2.14,2.81-4.98,4-8.5c1.18-3.53,2.11-7.76,2.77-12.7h-0.29c-7.19,9.89-16.02,14.83-26.5,14.83c-4.95,0-9.43-1.02-13.45-3.06
			c-4.02-2.05-7.32-4.8-9.88-8.26c-2.57-3.46-4.54-7.46-5.93-12.01c-1.38-4.56-2.08-9.35-2.08-14.43c0-9.09,1.25-17.58,3.75-25.46
			c2.51-7.87,5.87-14.49,10.09-19.87c4.21-5.38,9.1-9.58,14.62-12.61c5.54-3.03,11.27-4.54,17.2-4.54c9.3,0,16.48,2.63,21.55,7.91
			h0.49l0.7-5.83H292.24z M246.37,414.44c4.15-5.93,6.98-13.91,8.5-23.92l0.09-0.69c-1.84-1.9-3.76-3.29-5.73-4.15
			c-1.98-0.85-4.33-1.28-7.02-1.28c-3.57,0-6.79,1.53-9.69,4.6c-2.9,3.06-5.06,6.64-6.48,10.72c-1.41,4.09-2.12,8.04-2.12,11.87
			c0,3.88,0.83,6.82,2.52,8.79c1.69,1.98,3.9,2.97,6.67,2.97C237.8,423.34,242.22,420.37,246.37,414.44"/>
	</g>
	<g id="bon_copia">
		<path class="st0" d="M276.19,252.61c4.49,3.37,7.87,7.94,10.1,13.68c2.24,5.74,3.36,12.31,3.36,19.69
			c0,12.42-2.05,22.99-6.15,31.72c-4.09,8.72-10.3,15.44-18.61,20.16c-8.33,4.72-18.54,7.08-30.65,7.08
			c-15.7,0-29.58-3.11-41.62-9.32L209,202.47h32.5l-7.27,59.5h0.38c3.22-4.48,6.99-7.99,11.31-10.57c4.31-2.58,9.04-3.87,14.19-3.87
			C266.33,247.53,271.67,249.22,276.19,252.61 M246.8,312.3c3.48-2.51,6.04-5.75,7.73-9.69c1.67-3.94,2.51-8.32,2.51-13.17
			c0-3.91-0.82-7.07-2.47-9.45c-1.64-2.39-3.71-3.59-6.19-3.59c-4.72,0-9.15,3.08-13.32,9.23c-4.16,6.14-6.89,14.68-8.19,25.6v-0.09
			l-0.47,4.1c2.85,0.55,5.52,0.84,8,0.84C239.19,316.08,243.33,314.81,246.8,312.3"/>
		<path class="st0" d="M488.49,256.75c3.51,6.09,4.42,15.61,2.74,28.59l-7.44,57.55h-32.32l6.43-48.7
			c0.87-6.27,1.02-10.79,0.46-13.55c-0.56-2.76-1.99-4.14-4.28-4.14c-1.86,0-3.75,0.62-5.68,1.86c-1.93,1.24-3.81,3.11-5.64,5.59
			c-1.84,2.49-3.49,5.87-4.98,10.15c-1.49,4.28-2.57,9.18-3.26,14.71l-4.2,34.08h-32.5l11.46-93.4h32.5l-1.48,11.92h0.37
			c8.01-9.19,17.95-13.78,29.8-13.78C478.98,247.63,484.99,250.67,488.49,256.75"/>
		<path class="st0" d="M379.6,258.33c7.19,7.14,10.8,17.1,10.8,29.9c0,6.02-0.63,11.76-1.87,17.22c-1.24,5.46-3.24,10.6-6,15.41
			c-2.77,4.81-6.16,8.97-10.2,12.48c-4.04,3.51-9.03,6.29-15,8.34c-5.95,2.05-12.6,3.07-19.92,3.07c-11.92,0-21.48-3.59-28.69-10.75
			c-7.2-7.18-10.8-17.09-10.8-29.76c0-6.02,0.73-11.81,2.14-17.37c1.43-5.55,3.62-10.71,6.57-15.46c2.95-4.75,6.47-8.89,10.57-12.43
			c4.1-3.55,9-6.32,14.71-8.34c5.71-2.02,11.89-3.03,18.53-3.03C362.68,247.63,372.39,251.2,379.6,258.33 M340.39,278.87
			c-2.17,1.59-3.96,3.65-5.35,6.19c-1.4,2.55-2.47,5.38-3.21,8.53c-0.75,3.13-1.12,6.32-1.12,9.54c0,2.42,0.34,4.52,1.02,6.29
			c0.69,1.76,1.56,3.1,2.61,4c1.06,0.91,2.09,1.56,3.11,1.96c1.03,0.4,2.04,0.61,3.03,0.61c3.35,0,6.36-1.27,9.03-3.82
			c2.67-2.55,4.69-5.78,6.06-9.69c1.36-3.91,2.04-8.04,2.04-12.38c0-2.67-0.34-4.96-1.02-6.9c-0.69-1.92-1.58-3.33-2.66-4.23
			c-1.09-0.9-2.16-1.54-3.22-1.91c-1.05-0.37-2.1-0.56-3.17-0.56C344.95,276.49,342.56,277.29,340.39,278.87"/>
	</g>
	<g id="lineas_copia">
		<polygon class="st0" points="140.29,474.22 140.29,479.2 189.38,479.2 191.41,474.22 		"/>
		<path class="st0" d="M659,474.22H271.1c-1.12,1.75-2.3,3.43-3.57,4.98H659V474.22z"/>
		<rect x="140" y="552.1" class="st0" width="518.72" height="4.98"/>
	</g>
</g>
</svg>
