<svg xmlns="http://www.w3.org/2000/svg" viewBox="0 0 800 800"><defs><style>.cls-1{fill:#f7f7f9;}</style></defs><g id="bg_pos" data-name="bg pos"><g id="Capa_7_copia" data-name="Capa 7 copia"><path class="cls-1" d="M766.5,399.5c0-31.71-29.5-59.12-37.31-88.35-8.08-30.26,3.51-68.69-11.8-95.18-15.57-26.88-54.79-35.95-76.6-57.76S609.9,97.18,583,81.63C556.55,66.3,518.11,77.9,487.86,69.8,458.61,62,431.2,32.51,399.49,32.51S340.38,62,311.14,69.8c-30.25,8.1-68.69-3.51-95.17,11.82C189.09,97.18,180,136.4,158.21,158.21s-61,30.88-76.58,57.75c-15.33,26.49-3.74,64.93-11.83,95.19C62,340.38,32.5,367.79,32.5,399.5S62,458.62,69.8,487.85c8.09,30.26-3.51,68.69,11.82,95.18,15.55,26.88,54.78,36,76.59,57.77s30.88,61,57.75,76.57c26.49,15.32,64.92,3.75,95.18,11.82,29.24,7.82,56.65,37.3,88.35,37.3s59.12-29.48,88.37-37.3c30.25-8.07,68.69,3.5,95.18-11.81,26.86-15.55,36-54.78,57.75-76.58s61-30.89,76.59-57.76c15.32-26.5,3.73-64.93,11.81-95.19C737,458.62,766.5,431.21,766.5,399.5Zm-43.59,86.67c-7.93,29.69,3.44,67.38-11.59,93.38-15.26,26.35-53.74,35.26-75.13,56.65s-30.31,59.87-56.66,75.13c-26,15-63.68,3.66-93.36,11.58-28.69,7.68-55.57,36.59-86.68,36.59s-58-28.91-86.67-36.59c-29.68-7.92-67.38,3.43-93.36-11.59-26.37-15.25-35.26-53.74-56.66-75.12s-59.87-30.3-75.12-56.67c-15-26-3.66-63.68-11.6-93.36-7.67-28.67-36.59-55.56-36.59-86.67s28.92-58,36.59-86.67c7.94-29.68-3.43-67.38,11.6-93.36,15.25-26.36,53.73-35.28,75.12-56.66s30.3-59.87,56.67-75.13c26-15,63.68-3.65,93.35-11.59,28.68-7.67,55.57-36.59,86.67-36.59s58,28.92,86.68,36.59c29.68,7.94,67.38-3.43,93.36,11.6,26.35,15.25,35.27,53.73,56.66,75.12s59.87,30.3,75.14,56.66c15,26,3.65,63.68,11.58,93.36,7.66,28.68,36.59,55.57,36.59,86.67S730.57,457.5,722.91,486.17Z"/><path class="cls-1" d="M712.32,351C706,340.29,700,330.15,697.21,319.73c-2.94-11-2.85-23.69-2.79-36,.13-17.41.25-35.43-8.11-49.86-8.49-14.69-24.28-23.62-39.54-32.25-10.59-6-21.51-12.15-29.4-20s-14-18.8-20-29.37c-8.63-15.28-17.56-31.07-32.23-39.57-14.44-8.35-32.42-8.23-49.87-8.11-12.28.08-25,.17-36-2.77C468.85,99,458.71,93,448,86.68c-15.26-9-31-18.33-48.48-18.33S366.28,77.67,351,86.68C340.28,93,330.15,99,319.72,101.8c-11,2.94-23.7,2.86-36,2.77-17.42-.13-35.43-.24-49.86,8.11-14.69,8.5-23.62,24.29-32.25,39.57-6,10.56-12.15,21.5-20,29.37s-18.8,14-29.37,20c-15.28,8.63-31.07,17.56-39.56,32.24-8.36,14.43-8.23,32.46-8.12,49.87.08,12.28.17,25-2.77,36C99,330.15,93,340.29,86.68,351c-9,15.26-18.33,31-18.33,48.49S77.67,432.72,86.68,448C93,458.72,99,468.86,101.79,479.28c2.94,11,2.85,23.69,2.77,36-.12,17.41-.24,35.43,8.11,49.86,8.5,14.69,24.29,23.61,39.56,32.24,10.57,6,21.51,12.16,29.38,20s14,18.81,20,29.38c8.63,15.27,17.56,31.07,32.25,39.56,14.43,8.36,32.45,8.24,49.86,8.11,12.28-.07,25-.16,36,2.79,10.43,2.79,20.56,8.76,31.3,15.1,15.26,9,31,18.33,48.48,18.33s33.22-9.32,48.48-18.33c10.73-6.34,20.87-12.31,31.3-15.1,11-3,23.68-2.87,36-2.79,17.4.13,35.43.25,49.86-8.11,14.68-8.49,23.61-24.28,32.24-39.56,6-10.57,12.17-21.51,20-29.38s18.81-14,29.39-20c15.27-8.62,31.06-17.55,39.55-32.23,8.36-14.44,8.24-32.46,8.11-49.87-.06-12.28-.15-25,2.79-36C700,468.86,706,458.72,712.32,448c9-15.27,18.32-31.05,18.32-48.48S721.33,366.28,712.32,351Zm-5.54,93.7c-6.27,10.62-12.77,21.63-15.77,32.9-3.19,11.85-3.09,25-3,37.67.12,17.33.23,33.69-7.25,46.61-7.61,13.16-22.64,21.65-37.16,29.86-11,6.19-22.26,12.59-30.76,21.08s-14.89,19.81-21.08,30.75c-8.21,14.53-16.7,29.55-29.87,37.17-12.92,7.48-29.27,7.34-46.6,7.24-12.68-.07-25.82-.17-37.66,3-11.28,3-22.28,9.51-32.9,15.78-14.53,8.57-29.54,17.44-45.22,17.44s-30.7-8.87-45.21-17.44C343.65,700.51,332.65,694,321.38,691c-9.91-2.66-20.74-3-31.45-3-2.08,0-4.16,0-6.23,0-17.31.14-33.67.24-46.59-7.24-13.17-7.62-21.66-22.64-29.87-37.17-6.19-10.94-12.59-22.25-21.08-30.75S166.34,598,155.4,591.76c-14.53-8.21-29.55-16.7-37.17-29.87-7.46-12.91-7.35-29.28-7.24-46.6.09-12.7.17-25.82-3-37.67-3-11.27-9.5-22.28-15.79-32.9-8.57-14.52-17.43-29.53-17.43-45.21s8.86-30.7,17.43-45.22C98.5,343.66,105,332.66,108,321.38c3.17-11.84,3.08-25,3-37.66-.11-17.33-.22-33.68,7.24-46.6,7.63-13.18,22.64-21.67,37.17-29.88,10.95-6.18,22.27-12.58,30.76-21.08s14.89-19.81,21.08-30.75c8.21-14.53,16.7-29.55,29.87-37.16,12.92-7.47,29.27-7.36,46.59-7.25,12.72.1,25.84.17,37.68-3,11.27-3,22.27-9.51,32.91-15.79,14.51-8.57,29.52-17.43,45.21-17.43s30.69,8.86,45.22,17.43C455.34,98.5,466.34,105,477.62,108c11.84,3.16,25,3.09,37.66,3,17.33-.12,33.68-.22,46.6,7.25,13.18,7.62,21.66,22.64,29.87,37.16,6.19,10.94,12.59,22.27,21.08,30.76s19.82,14.89,30.77,21.08c14.52,8.2,29.54,16.7,37.16,29.87,7.48,12.92,7.36,29.27,7.24,46.6-.08,12.7-.18,25.83,3,37.66,3,11.28,9.5,22.28,15.78,32.92,8.56,14.51,17.43,29.52,17.43,45.21S715.35,430.2,706.78,444.72Z"/></g><g id="industrias_copia" data-name="industrias copia"><path class="cls-1" d="M170.39,531.21h-3.45V504.57h3.45Z"/><path class="cls-1" d="M195.38,531.21h-3.72l-8.44-19.49v19.49h-3.45V504.57h3.79l.16.39,8.2,19.14V504.57h3.46Z"/><path class="cls-1" d="M210.15,531.21h-5.59V504.57h5.15c3,0,5.75.2,8,2.6,1.79,2.17,2.59,6.07,2.59,8.8v.58c0,2.85,0,6.4-1,9.08C217.61,530.27,214.55,531.21,210.15,531.21ZM208,528h2a8.75,8.75,0,0,0,3.62-.49c3.2-1.47,3.2-7.41,3.2-9.64v-.17c0-3.1,0-7.78-3-9.41a7,7,0,0,0-3.14-.53c-.51,0-1,0-1.44,0H208Z"/><path class="cls-1" d="M236.7,531.82c-5,0-7.54-2.68-7.54-7.94V504.57h3.47v19.05c0,3.77,1,5,4,5s4.21-1.4,4.21-5.19V504.57h3.46v18.29C244.3,526.7,243.51,531.82,236.7,531.82Z"/><path class="cls-1" d="M260.23,531.82a7.37,7.37,0,0,1-5.44-2.09,8.51,8.51,0,0,1-2.16-6.33l0-.62h3.4v.64a5.85,5.85,0,0,0,1.3,4.13,3.85,3.85,0,0,0,2.85,1,4.15,4.15,0,0,0,4.48-4.48c0-3-1.85-3.69-4.39-4.65l-.89-.34c-3.17-1.25-6.26-2.86-6.26-7.52S256,504,260.36,504a7,7,0,0,1,5.16,2,7.23,7.23,0,0,1,1.93,5.35V512H264l0-.65a4,4,0,0,0-1-3.07,3.72,3.72,0,0,0-2.77-1.05c-2.76,0-3.74,2.2-3.74,4.27s.55,3,2.71,3.9l1.95.82c3.71,1.55,6.88,2.88,6.88,7.88C268.13,528.77,265,531.82,260.23,531.82Z"/><path class="cls-1" d="M283.84,531.21h-3.45V507.79h-5.76v-3.22h15v3.22h-5.75Z"/><path class="cls-1" d="M311.66,531.21h-3.43l-.17-.38c-.78-1.78-.9-4.83-1-7.05,0-.58,0-1.09-.07-1.48-.19-2.59-1.77-3-5-3h-1.65v12h-3.45V504.57h5.54c3.63,0,8.44.74,8.44,7.12,0,2.15-.75,4.76-2.74,6,2.16,1.26,2.38,3.74,2.4,6.22,0,.18,0,.47,0,.83,0,3,.31,4.73.79,5l.33.17ZM300.32,516h3.24c.65,0,3.84-.2,3.84-4.18,0-3.08-1.1-4.07-4.52-4.07h-2.56Z"/><path class="cls-1" d="M323.56,531.21H320.1V504.57h3.46Z"/><path class="cls-1" d="M348.69,531.21h-3.54l-2-7.83h-6.73l-2.07,7.83h-3.44l7.15-26.64h3.48Zm-11.48-11h5.15l-2.57-9.85Z"/><path class="cls-1" d="M362.33,531.82a7.38,7.38,0,0,1-5.43-2.08,8.55,8.55,0,0,1-2.17-6.34v-.62h3.42v.64a5.83,5.83,0,0,0,1.28,4.13,3.88,3.88,0,0,0,2.86,1,4.15,4.15,0,0,0,4.48-4.48c0-3-1.85-3.69-4.4-4.65l-.89-.34c-3.16-1.25-6.25-2.86-6.25-7.52s2.83-7.63,7.23-7.63a7,7,0,0,1,5.16,2,7.27,7.27,0,0,1,1.93,5.35l0,.61h-3.4l0-.65a4,4,0,0,0-1-3.07,3.65,3.65,0,0,0-2.75-1.05c-2.76,0-3.75,2.2-3.75,4.27s.56,3,2.7,3.9l2,.82c3.71,1.55,6.88,2.88,6.88,7.88C370.23,528.77,367.13,531.82,362.33,531.82Z"/><path class="cls-1" d="M407.32,531.21h-3.53l-2-7.83h-6.74L393,531.21h-3.43l7.14-26.64h3.5Zm-11.48-11H401l-2.58-9.87Z"/><path class="cls-1" d="M427.38,531.21H414.52V504.57H418V528h9.41Z"/><path class="cls-1" d="M438.93,531.21h-3.45V504.57h3.45Z"/><path class="cls-1" d="M469.33,531.21h-3.47V511.88l-5.25,19.33h-3.29L452,511.82v19.39h-3.46V504.57h4.79l5.59,20.52,5.71-20.52h4.7Z"/><path class="cls-1" d="M491.47,531.21H478.54V504.57h12.75v3.22H482v7.89h8.46v3.21H482V528h9.48Z"/><path class="cls-1" d="M514.89,531.21h-3.71l-8.44-19.49v19.49H499.3V504.57h3.77l.16.39,8.21,19.14V504.57h3.45Z"/><path class="cls-1" d="M531.52,531.21h-3.46V507.79h-5.75v-3.22h15v3.22h-5.75Z"/><path class="cls-1" d="M548.55,531.21H545.1V504.57h3.45Z"/><path class="cls-1" d="M565.79,531.82c-8,0-8-9.16-8-14.64,0-3.61,0-13.21,8-13.21,4.52,0,7.48,3.34,7.53,8.53v.63H570l0-.58c-.24-3.57-1.64-5.37-4.15-5.37a3.38,3.38,0,0,0-2.53,1c-2,2-2,6.65-2,9.15v.77c0,2.78,0,7.42,2,9.45a3.6,3.6,0,0,0,2.72,1.05c3.22,0,4-3.6,4.12-6.62l0-.61h3.42V522a10.85,10.85,0,0,1-2.69,7.75A7,7,0,0,1,565.79,531.82Z"/><path class="cls-1" d="M586.39,531.21h-3.46V504.57h3.46Z"/><path class="cls-1" d="M611.53,531.21H608l-2-7.83h-6.74l-2.07,7.83h-3.43l7.14-26.64h3.51Zm-11.48-11h5.15l-2.57-9.85Z"/><path class="cls-1" d="M625.18,531.82a7.36,7.36,0,0,1-5.44-2.09,8.51,8.51,0,0,1-2.16-6.33v-.62H621v.64a5.79,5.79,0,0,0,1.3,4.13,3.83,3.83,0,0,0,2.84,1,4.16,4.16,0,0,0,4.49-4.48c0-3-1.85-3.69-4.4-4.65l-.89-.34c-3.16-1.25-6.25-2.86-6.25-7.52s2.83-7.63,7.23-7.63a7,7,0,0,1,5.18,2,7.27,7.27,0,0,1,1.9,5.35v.6H629l0-.65a4,4,0,0,0-1-3.07,3.69,3.69,0,0,0-2.76-1.05c-2.76,0-3.74,2.2-3.74,4.27s.55,3,2.7,3.9l2,.82c3.72,1.55,6.88,2.88,6.88,7.88C633.07,528.77,630,531.82,625.18,531.82Z"/></g><g id="gusto_copia" data-name="gusto copia"><path class="cls-1" d="M399.6,356l-12.15,99.16H353l1.59-12.55h-.7q-11.07,14.54-27.37,14.54a36.28,36.28,0,0,1-9.7-1.19,22.15,22.15,0,0,1-7.76-4,17.82,17.82,0,0,1-5.39-7.31,41.45,41.45,0,0,1-2.61-11.12,64,64,0,0,1,.44-15.48L309.05,356h34.21l-6,49.34q-.51,4.35-.79,7.17c-.19,1.88-.31,3.68-.34,5.43a20.14,20.14,0,0,0,.24,4.1,7.16,7.16,0,0,0,1,2.58,3.78,3.78,0,0,0,1.72,1.52,6.71,6.71,0,0,0,2.63.45q3.45,0,7.46-3.7a33.38,33.38,0,0,0,6.82-9.09,30.31,30.31,0,0,0,3.41-10.24L365.2,356Z"/><path class="cls-1" d="M429.32,429.13a26.88,26.88,0,0,0,12,3.27,15.26,15.26,0,0,0,2.48-.19,5.54,5.54,0,0,0,1.83-.65,3.47,3.47,0,0,0,1.13-1,2.39,2.39,0,0,0,.4-1.39c0-1.18-.78-2.3-2.33-3.35s-5.45-3.27-11.71-6.63q-12.56-6.63-18.29-13.49t-5.73-17.16a33,33,0,0,1,18.68-30.35A42.61,42.61,0,0,1,447,353.9a48.52,48.52,0,0,1,20.27,4.3,42.91,42.91,0,0,1,16,12.51l-20.08,18.68a23.16,23.16,0,0,0-7.76-7.66,17.41,17.41,0,0,0-7.76-2.42,7.18,7.18,0,0,0-4.25,1.09,3.67,3.67,0,0,0-1.87,3.26c0,1.06,1,2.28,3,3.7a85.18,85.18,0,0,0,9.83,5.59q5.55,2.78,9.4,5.2a60.11,60.11,0,0,1,7.11,5.23,25,25,0,0,1,5.15,5.93,27.09,27.09,0,0,1,2.91,6.93,32.11,32.11,0,0,1,1,8.45,29.11,29.11,0,0,1-10.78,23.38q-10.79,9-29.06,9.05a58.61,58.61,0,0,1-22.1-4.46,44.68,44.68,0,0,1-17.84-12.55l18.18-19.37a35.19,35.19,0,0,0,10.93,8.39"/><path class="cls-1" d="M549,450a57.89,57.89,0,0,1-27.58,7.13,37.12,37.12,0,0,1-7.08-.65,26.94,26.94,0,0,1-6.47-2.17,17.29,17.29,0,0,1-5.39-4.06,25.15,25.15,0,0,1-3.9-6.18,24.42,24.42,0,0,1-2-8.55,71.36,71.36,0,0,1,.25-11.32l4.85-40.73h-9.59L495.42,356h9.69l3.56-28L544,321.08,539.6,356h18.69l-3.36,27.49H536.25l-4.35,36.68a7.71,7.71,0,0,0,.54,4.75,3.14,3.14,0,0,0,2.92,1.67,19.27,19.27,0,0,0,7.81-2.17Z"/><path class="cls-1" d="M647.08,365.37q11.45,11.36,11.46,31.74a82.23,82.23,0,0,1-2,18.29,58.4,58.4,0,0,1-6.37,16.36A51.6,51.6,0,0,1,639.37,445a47.77,47.77,0,0,1-15.92,8.85,64.67,64.67,0,0,1-21.16,3.27q-19,0-30.45-11.43T560.38,414.1a74,74,0,0,1,2.26-18.43,58.74,58.74,0,0,1,7-16.41,57.26,57.26,0,0,1,11.23-13.2,48.37,48.37,0,0,1,15.62-8.85A58.72,58.72,0,0,1,616.13,354q19.47,0,31,11.37m-41.63,21.8a19.65,19.65,0,0,0-5.68,6.57,36.21,36.21,0,0,0-3.41,9.05,43.7,43.7,0,0,0-1.19,10.13,18.45,18.45,0,0,0,1.09,6.68,10.3,10.3,0,0,0,2.77,4.25,12.25,12.25,0,0,0,3.3,2.08,9,9,0,0,0,3.22.63,13.57,13.57,0,0,0,9.6-4.05,25.53,25.53,0,0,0,6.42-10.28,39.55,39.55,0,0,0,2.17-13.14,22.15,22.15,0,0,0-1.09-7.33,10.05,10.05,0,0,0-2.83-4.49,11.16,11.16,0,0,0-3.4-2,10.12,10.12,0,0,0-3.36-.59,12.66,12.66,0,0,0-7.61,2.52"/><path class="cls-1" d="M292.24,355.82l-10.58,86.11Q274.94,497,223.44,497q-21.57,0-37.38-9.59l10.58-25.9a46.78,46.78,0,0,0,24.52,7.12,40.28,40.28,0,0,0,7.71-.65,20.29,20.29,0,0,0,6.43-2.52,17.27,17.27,0,0,0,5.39-5.09,34.58,34.58,0,0,0,4-8.51,69.07,69.07,0,0,0,2.77-12.7h-.29Q236.39,454,220.67,454a29.31,29.31,0,0,1-13.45-3.06,27.89,27.89,0,0,1-9.89-8.26,39.53,39.53,0,0,1-5.93-12,49.45,49.45,0,0,1-2.07-14.43,83.76,83.76,0,0,1,3.75-25.46,62.77,62.77,0,0,1,10.09-19.87,47.54,47.54,0,0,1,14.63-12.61,35.46,35.46,0,0,1,17.2-4.54q14,0,21.55,7.91H257l.7-5.84Zm-45.87,58.62q6.23-8.88,8.5-23.92l.1-.69a18.29,18.29,0,0,0-5.73-4.15,17.67,17.67,0,0,0-7-1.28c-3.57,0-6.79,1.53-9.69,4.59a29.49,29.49,0,0,0-6.48,10.72,36.37,36.37,0,0,0-2.12,11.87c0,3.89.83,6.82,2.52,8.79a8.32,8.32,0,0,0,6.67,3q7,0,13.25-8.9"/></g><g id="bon_copia" data-name="bon copia"><path class="cls-1" d="M276.19,252.61a30.46,30.46,0,0,1,10.09,13.69A53.84,53.84,0,0,1,289.64,286q0,18.64-6.15,31.72a44.32,44.32,0,0,1-18.62,20.16q-12.49,7.08-30.64,7.08-23.55,0-41.62-9.31L209,202.47h32.5L234.23,262h.38a37.59,37.59,0,0,1,11.31-10.57,27.12,27.12,0,0,1,14.2-3.87,26,26,0,0,1,16.07,5.08M246.8,312.3a22.71,22.71,0,0,0,7.73-9.69,33.43,33.43,0,0,0,2.52-13.17c0-3.91-.83-7.07-2.48-9.45a7.31,7.31,0,0,0-6.19-3.6q-7.08,0-13.31,9.23t-8.19,25.61v-.09l-.47,4.09a41.7,41.7,0,0,0,8,.85,20.6,20.6,0,0,0,12.39-3.78"/><path class="cls-1" d="M488.49,256.75q5.28,9.13,2.75,28.59l-7.44,57.54H451.48l6.43-48.69q1.3-9.42.46-13.55t-4.28-4.15a10.48,10.48,0,0,0-5.68,1.86,22.32,22.32,0,0,0-5.64,5.59,38.42,38.42,0,0,0-5,10.16,71.33,71.33,0,0,0-3.25,14.71l-4.2,34.07h-32.5l11.45-93.39h32.5l-1.48,11.91h.36q12-13.77,29.81-13.77,12.75,0,18,9.12"/><path class="cls-1" d="M379.6,258.33q10.78,10.71,10.8,29.9a77.55,77.55,0,0,1-1.87,17.22,55.42,55.42,0,0,1-6,15.42,48.65,48.65,0,0,1-10.2,12.47,44.69,44.69,0,0,1-15,8.34,60.88,60.88,0,0,1-19.92,3.07q-17.88,0-28.69-10.75t-10.8-29.76a70.26,70.26,0,0,1,2.14-17.36,55.14,55.14,0,0,1,6.57-15.46A53.56,53.56,0,0,1,317.2,259a45.27,45.27,0,0,1,14.72-8.34,55.34,55.34,0,0,1,18.52-3q18.36,0,29.16,10.7m-39.21,20.54a18.64,18.64,0,0,0-5.35,6.19,33.6,33.6,0,0,0-3.21,8.52,40.42,40.42,0,0,0-1.13,9.55,17.31,17.31,0,0,0,1,6.29,9.83,9.83,0,0,0,2.61,4,10.88,10.88,0,0,0,3.11,2,8.35,8.35,0,0,0,3,.61,12.77,12.77,0,0,0,9-3.82,24.2,24.2,0,0,0,6.06-9.69,37.43,37.43,0,0,0,2-12.38,21.14,21.14,0,0,0-1-6.9,9.7,9.7,0,0,0-2.66-4.23,10.77,10.77,0,0,0-3.22-1.91,9.46,9.46,0,0,0-3.17-.56,11.91,11.91,0,0,0-7.16,2.38"/></g><g id="lineas_copia" data-name="lineas copia"><polygon class="cls-1" points="140.29 474.22 140.29 479.2 189.38 479.2 191.41 474.22 140.29 474.22"/><path class="cls-1" d="M659,474.22H271.1a50.88,50.88,0,0,1-3.58,5H659Z"/><rect class="cls-1" x="140" y="552.1" width="518.72" height="4.98"/></g></g></svg>