<?xml version="1.0" encoding="utf-8"?>
<!-- Generator: Adobe Illustrator 24.1.1, SVG Export Plug-In . SVG Version: 6.00 Build 0)  -->
<svg version="1.1" xmlns="http://www.w3.org/2000/svg" xmlns:xlink="http://www.w3.org/1999/xlink" x="0px" y="0px"
	 viewBox="0 0 792 792" style="enable-background:new 0 0 792 792;" xml:space="preserve">
<style type="text/css">
	.st0{fill:#240D09;}
	.st1{clip-path:url(#SVGID_2_);fill:#FF7D01;}
	.st2{clip-path:url(#SVGID_2_);fill:#240D09;}
	.st3{clip-path:url(#SVGID_2_);fill:#FFFFFF;stroke:#FFFFFF;stroke-miterlimit:10;}
	.st4{display:none;clip-path:url(#SVGID_2_);}
	.st5{display:inline;fill:#FD2316;}
	.st6{clip-path:url(#SVGID_2_);}
	.st7{fill:#FFFFFF;}
	.st8{clip-path:url(#SVGID_2_);fill:#FD2316;}
</style>
<g id="Capa_2">
	
		<image style="overflow:visible;" width="1134" height="195" xlink:href="EAB2982C.jpg"  transform="matrix(9.8211 0 0 9.8211 -931 3.796)">
	</image>
	<rect x="-996.8" class="st0" width="11202.9" height="786.9"/>
	<text transform="matrix(1 0 0 1 1632.5555 438.7834)" class="st7" style="font-family:'MyriadPro-Regular'; font-size:150px;">PRODUCTOS</text>
	<text transform="matrix(1 0 0 1 2578.3335 438.7837)" class="st7" style="font-family:'MyriadPro-Regular'; font-size:150px;">ENCUENTRANOS</text>
</g>
<g id="Capa_1">
	<g>
		<defs>
			<rect id="SVGID_1_" x="-312.3" width="1642.7" height="786.9"/>
		</defs>
		<clipPath id="SVGID_2_">
			<use xlink:href="#SVGID_1_"  style="overflow:visible;"/>
		</clipPath>
		<path id="PARTIDO_7_" class="st1" d="M1054.5,473.6c0,56.7-52.8,105.7-66.7,157.9c-14.4,54,6.1,122.8-21.1,170.2
			c-27.9,48-98,64.4-137,103.4s-55.3,109.1-103.4,137c-47.5,27.5-116.2,6.7-170.2,21.1c-52.3,14-101.2,66.7-157.9,66.7
			c-56.7,0-105.7-52.6-157.9-66.7c-54.2-14.4-122.8,6.3-170.2-21.1c-48-27.9-64.4-98-103.4-137s-109.1-55.1-137-103.4
			c-27.5-47.5-6.7-116-21.1-170.2c-14-52.3-66.7-101.4-66.7-157.9c0-56.7,52.6-105.7,66.7-157.9c14.4-54.2-6.1-122.8,21.1-170.2
			c27.9-48,98-64.2,137-103.4C5.7,3.1,22-67,70.1-94.9c47.5-27.3,116-6.7,170.2-21.1c52.3-14,101.2-66.7,157.9-66.7
			S503.9-130,556.1-116c54.2,14.4,122.8-6.1,170.2,21.1c48,27.9,64.4,98,103.4,137s109.1,55.1,137,103.4
			c27.3,47.5,6.7,116.2,21.1,170.2C1001.7,367.9,1054.5,416.9,1054.5,473.6"/>
		<path class="st2" d="M995.9,473.6c0,51.7-48,96.3-60.7,143.9c-13.3,49.2,5.8,112-19.2,155c-25.4,43.8-89.3,58.6-124.9,94.1
			c-35.5,35.5-50.3,99.5-94.1,124.7c-43.2,25-105.7,6.1-155,19.2c-47.6,12.7-92.2,60.7-143.9,60.7s-96.3-48-143.9-60.7
			c-49.4-13.3-111.8,5.8-155-19.2C55.3,966,40.5,902,4.9,866.7c-35.5-35.5-99.5-50.3-124.7-94.1c-25-43-6.1-105.7-19.2-155
			c-12.9-47.6-60.7-92.2-60.7-143.9s48-96.3,60.7-143.9c13.1-49.4-5.8-111.8,19.2-155c25.4-43.8,89.1-58.6,124.7-94.1
			S55.3-18.8,99.1-44.2c43-25,105.7-6.1,155-19.2c47.6-12.7,92.2-60.7,143.9-60.7s96.3,48,143.9,60.7c49.4,13.3,112-5.8,155,19.2
			c43.8,25.4,58.6,89.3,94.1,124.7c35.5,35.5,99.3,50.3,124.9,94.1c25,43,6.1,105.7,19.2,155C947.9,377.3,995.9,421.9,995.9,473.6"
			/>
		<path id="margen_6_" class="st3" d="M398,1077.4c-31.9,0-60.5-16.9-88.4-33.4c-19.6-11.5-38-22.5-57.1-27.5
			c-20-5.4-43.2-5.2-65.5-5.2c-31.7,0.2-64.6,0.4-90.9-14.8c-26.7-15.4-43-44.2-58.8-72c-11-19.2-22.1-39.2-36.5-53.6
			s-34.2-25.6-53.6-36.5c-27.9-15.8-56.7-32.1-72-58.8c-15.2-26.3-15-59.2-14.8-90.9c0.2-22.3,0.4-45.5-5-65.5
			c-5-19-15.9-37.5-27.5-57.1c-16.5-27.9-33.4-56.5-33.4-88.4s16.9-60.5,33.4-88.4c11.5-19.6,22.5-38,27.5-57.1
			c5.4-20.2,5.2-43.2,5-65.5c-0.2-31.7-0.4-64.7,14.8-90.9c15.6-26.7,44.4-43,72.2-58.8c19.2-11,39.2-22.1,53.6-36.5
			s25.6-34.2,36.5-53.6C53.3-4.8,69.7-33.6,96.4-49c26.3-15.2,59.2-15,90.9-14.8c22.3,0.2,45.5,0.4,65.5-5c19-5,37.5-15.9,57.1-27.5
			c27.9-16.5,56.7-33.4,88.4-33.4s60.5,16.9,88.4,33.4c19.6,11.5,38,22.5,57.1,27.5c20.2,5.4,43.2,5.2,65.5,5
			C641-64,673.7-64.1,700-49c26.9,15.6,43,44.2,58.8,72c11,19.2,22.1,39.2,36.5,53.6s34.2,25.6,53.6,36.5
			c27.9,15.8,56.7,32.1,72,58.8c15.2,26.3,15,59.2,14.8,90.9c-0.2,22.3-0.4,45.3,5,65.5c5,19,15.9,37.5,27.5,57.1
			c16.3,27.9,33.4,56.7,33.4,88.4s-16.9,60.5-33.4,88.4c-11.5,19.6-22.5,38-27.5,57.1c-5.4,20-5.2,43.2-5,65.5
			c0.2,31.7,0.4,64.6-14.8,90.9c-15.4,26.7-44.2,43-72,58.8c-19.2,11-39.2,22.1-53.6,36.5s-25.6,34.2-36.5,53.6
			c-15.8,27.9-32.1,56.7-58.8,72c-26.3,15.2-59.2,15-90.9,14.8c-22.3-0.2-45.5-0.2-65.5,5.2c-19,5.2-37.5,15.9-57.1,27.5
			C458.5,1060.3,429.9,1077.4,398,1077.4 M198.2,999.6c19.6,0,39.2,0.6,57.4,5.6c20.6,5.6,40.5,17.3,59.9,28.8
			c26.5,15.6,53.8,31.7,82.4,31.7c28.6,0,55.9-16.1,82.4-31.7c19.4-11.5,39.4-23.2,59.9-28.8c21.5-5.8,45.5-5.6,68.8-5.4
			c31.7,0.2,61.5,0.4,84.9-13.3c24-13.8,39.6-41.3,54.4-67.8c11.3-20,22.9-40.5,38.4-56.1c15.4-15.4,36.1-27.1,56.1-38.4
			c26.5-15,53.8-30.4,67.8-54.4c13.6-23.6,13.4-53.4,13.3-84.9c-0.2-23.2-0.4-47.1,5.4-68.8c5.6-20.6,17.3-40.5,28.8-59.9
			c15.6-26.5,31.7-53.8,31.7-82.4c0-28.6-16.1-55.9-31.7-82.4C946.7,372,935,352,929.4,331.4c-5.8-21.5-5.6-45.5-5.4-68.6
			c0.2-31.7,0.4-61.5-13.3-84.9c-13.8-24-41.3-39.6-67.6-54.4c-20-11.3-40.5-22.9-56.1-38.4C771.5,69.6,759.8,49,748.6,29
			c-15-26.5-30.4-53.8-54.4-67.6c-23.6-13.6-53.4-13.4-84.9-13.3c-23.1,0.2-47.1,0.4-68.8-5.4C520-62.8,500-74.5,480.6-86.1
			c-26.5-15.6-53.8-31.7-82.4-31.7c-28.6,0-55.9,16.1-82.4,31.7c-19.4,11.5-39.4,23.2-59.9,28.8c-21.5,5.8-45.5,5.6-68.8,5.4
			c-31.7-0.2-61.5-0.4-84.9,13.3C78.1-24.8,62.8,2.7,47.8,29C36.4,49,24.9,69.6,9.3,85.1c-15.4,15.6-36.1,27.1-56.1,38.4
			c-26.5,15-53.8,30.5-67.6,54.6c-13.6,23.6-13.4,53.4-13.3,84.9c0.2,23.2,0.4,47.1-5.4,68.6c-5.6,20.6-17.3,40.5-28.8,59.9
			c-15.6,26.5-31.9,53.8-31.9,82.4c0,28.6,16.1,55.9,31.9,82.4c11.5,19.4,23.2,39.4,28.8,59.9c5.8,21.5,5.6,45.5,5.4,68.8
			c-0.2,31.5-0.4,61.5,13.3,84.9c13.8,24,41.3,39.4,67.6,54.4c20,11.3,40.5,23.1,56.1,38.4c15.6,15.6,27.3,36.1,38.4,56.1
			c15,26.5,30.4,53.8,54.4,67.8c23.6,13.6,53.4,13.4,84.9,13.3C190.7,999.6,194.6,999.6,198.2,999.6"/>
		<g class="st4">
			<rect x="-74.6" y="617.8" class="st5" width="945.6" height="9.2"/>
		</g>
		<g class="st4">
			<rect x="-75" y="759.8" class="st5" width="945.6" height="9.2"/>
		</g>
		<g id="industrias_6_" class="st6">
			<rect x="-24.7" y="666.5" class="st7" width="4" height="46.3"/>
			<polygon class="st7" points="20.7,706.1 20.7,706.1 20.7,666.5 24.7,666.5 24.7,712.6 19.9,712.6 2.8,673 2.6,673 2.6,712.6 
				-1.4,712.6 -1.4,666.5 3.6,666.5 			"/>
			<path class="st7" d="M43.7,666.5H52c5.2,0,10,0.2,13.6,4.4c3.1,3.7,4.4,10.6,4.4,15.2c0,5.2,0.2,12.3-1.7,17.3
				c-2.9,7.9-7.9,9.4-15.6,9.4h-9L43.7,666.5L43.7,666.5L43.7,666.5z M47.8,709.1h4.8c2.3,0,5,0,7.1-1c6.1-2.9,6.5-13.1,6.5-18.6
				c0-5.8,0.2-15.2-6-18.4c-2.3-1.3-6.1-1.2-8.8-1H48L47.8,709.1L47.8,709.1z"/>
			<path class="st7" d="M88.7,666.5h4v33.6c0,6.5,1.5,10.2,8.5,10.2c7.3,0,8.8-4.4,8.8-10.6v-33.2h4v32.3c0,9-2.7,15.2-12.7,15.2
				c-8.8,0-12.7-4.8-12.7-13.3V666.5L88.7,666.5L88.7,666.5z"/>
			<path class="st7" d="M145.6,687.4c6.7,2.9,11.9,5,11.9,13.4c0,7.9-5.2,13.1-13.3,13.1c-8.5,0-12.9-6-12.7-14.2h4
				c-0.2,5.8,2.3,10.6,8.6,10.6c5.6,0,9.2-3.7,9.2-9.2c0-6.9-5-8.1-10.4-10.2c-6.1-2.5-10.6-5.4-10.6-12.7c0-7.5,4.4-12.7,12.1-12.7
				c7.3,0,11.9,5,11.7,12.3h-3.8c0.2-5.2-2.9-8.6-7.9-8.6c-5.2,0-7.9,3.8-7.9,8.8c0,4.6,1.5,6.3,5.6,8.3L145.6,687.4z"/>
			<polygon class="st7" points="171.5,669.9 171.5,666.5 196.5,666.5 196.5,669.9 186.1,669.9 186.1,712.6 182.1,712.6 182.1,669.9 
							"/>
			<path class="st7" d="M216.1,690.9v21.7h-4v-46.1h9c8.5,0,14.2,2.5,14.2,11.9c0,4.4-1.9,9.8-6.7,10.8l0,0
				c5.4,1.3,6.1,5.6,6.1,11.3c0,2.3-0.2,10.4,2.1,11.7v0.6h-4.4c-1.7-3.8-1.5-11.7-1.9-15.2c-0.4-6.1-5-6.7-10.4-6.7L216.1,690.9
				L216.1,690.9z M216.1,687.2h7.1c1.3,0,8.1-0.4,8.1-8.8c0-6.7-3.1-8.6-9.4-8.6h-5.8L216.1,687.2L216.1,687.2z"/>
			<rect x="254.5" y="666.5" class="st7" width="4" height="46.3"/>
			<path class="st7" d="M291.6,666.5l12.3,46.3h-4l-3.7-14.2h-14l-3.8,14.2h-3.8l12.5-46.3L291.6,666.5L291.6,666.5z M295.4,694.7
				l-6.1-23.4h-0.2l-6.1,23.4H295.4z"/>
			<path class="st7" d="M331.7,687.4c6.7,2.9,11.9,5,11.9,13.4c0,7.9-5.2,13.1-13.3,13.1c-8.5,0-12.9-6-12.7-14.2h4
				c0,5.8,2.3,10.6,8.6,10.6c5.6,0,9.2-3.7,9.2-9.2c0-6.9-5-8.1-10.4-10.2c-6.1-2.5-10.6-5.4-10.6-12.7c0-7.5,4.4-12.7,11.9-12.7
				c7.3,0,11.9,5,11.7,12.3h-3.8c0.2-5.2-2.9-8.6-7.9-8.6c-5.2,0-7.9,3.8-7.9,8.8c0,4.6,1.5,6.3,5.6,8.3L331.7,687.4z"/>
			<path class="st7" d="M398.4,666.5l12.5,46.3h-4l-3.7-14.2h-14l-3.8,14.2h-3.8l12.5-46.3L398.4,666.5L398.4,666.5z M402.2,694.7
				l-6.1-23.4h-0.2l-6.1,23.4H402.2z"/>
			<polygon class="st7" points="426.6,712.6 426.6,666.5 430.7,666.5 430.7,709.1 447.8,709.1 447.8,712.6 			"/>
			<rect x="464.9" y="666.5" class="st7" width="4" height="46.3"/>
			<polygon class="st7" points="492.7,712.6 488.5,712.6 488.5,666.5 495.4,666.5 506.4,706.6 506.4,706.6 517.7,666.5 524.2,666.5 
				524.2,712.6 520.2,712.6 520.2,670.3 520,670.3 508.7,712.6 504.4,712.6 492.7,670.3 492.7,670.3 			"/>
			<polygon class="st7" points="543.3,712.6 543.3,666.5 564.2,666.5 564.2,669.9 547.3,669.9 547.3,686.7 562.7,686.7 562.7,690.3 
				547.3,690.3 547.3,709.1 564.6,709.1 564.6,712.6 			"/>
			<polygon class="st7" points="603.2,706.1 603.4,706.1 603.4,666.5 607.2,666.5 607.2,712.6 602.4,712.6 585.3,673 585.1,673 
				585.1,712.6 581.1,712.6 581.1,666.5 586.1,666.5 			"/>
			<polygon class="st7" points="623.2,669.9 623.2,666.5 648.2,666.5 648.2,669.9 637.6,669.9 637.6,712.6 633.5,712.6 633.5,669.9 
							"/>
			<rect x="664.7" y="666.5" class="st7" width="4" height="46.3"/>
			<path class="st7" d="M714.2,697c0.2,7.9-3.8,16.7-13.1,16.7c-13.4,0-13.4-15.8-13.4-25.6c0-9.6,1.2-23.1,13.4-23.1
				c8.3,0,12.5,6.5,12.7,14.4h-4c-0.4-5.6-2.5-11-8.6-11c-9.8,0-9.4,14-9.4,20.4c0,7.1-0.4,20.9,9.8,20.9c6.9,0,8.5-7.5,8.6-13.3h4
				V697z"/>
			<rect x="733.6" y="666.5" class="st7" width="4" height="46.3"/>
			<path class="st7" d="M770.7,666.5l12.5,46.3h-4l-3.7-14.2h-14l-3.7,14.2H754l12.3-46.3L770.7,666.5L770.7,666.5z M774.6,694.7
				l-6.1-23.4h-0.2l-6.1,23.4H774.6z"/>
			<path class="st7" d="M810.9,687.4c6.7,2.9,11.9,5,11.9,13.4c0,7.9-5.2,13.1-13.3,13.1c-8.5,0-12.9-6-12.7-14.2h3.8
				c0,5.8,2.3,10.6,8.6,10.6c5.6,0,9.2-3.7,9.2-9.2c0-6.9-5-8.1-10.4-10.2c-6.1-2.5-10.8-5.4-10.8-12.7c0-7.5,4.6-12.7,12.1-12.7
				c7.3,0,11.9,5,11.7,12.3h-3.8c0.2-5.2-2.9-8.6-7.9-8.6c-5.2,0-8.1,3.8-8.1,8.8c0,4.6,1.5,6.3,5.6,8.3L810.9,687.4z"/>
		</g>
		<path class="st1" d="M398.2,394.3L376.1,575h-62.8l2.9-22.9H315c-13.4,17.7-30.2,26.5-50,26.5c-6.5,0-12.5-0.8-17.7-2.1
			c-5.2-1.5-9.8-3.8-14.2-7.3c-4.2-3.5-7.5-7.9-9.8-13.3c-2.3-5.6-3.8-12.3-4.8-20.4c-1-7.9-0.6-17.3,0.8-28.2L233,394.3h62.4
			l-11,89.9c-0.6,5.2-1.2,9.6-1.5,13.1c-0.4,3.5-0.6,6.7-0.6,9.8c0,3.3,0,5.8,0.4,7.5c0.4,1.9,1,3.5,1.9,4.8
			c0.8,1.3,1.9,2.3,3.1,2.7c1.2,0.6,2.9,0.8,4.8,0.8c4.2,0,8.6-2.3,13.6-6.7c4.8-4.6,9-10,12.5-16.5c3.5-6.5,5.6-12.7,6.1-18.6
			l10.6-86.6L398.2,394.3L398.2,394.3z"/>
		<path class="st1" d="M452.4,527.8c7.9,4,15.2,6,21.9,6c1.7,0,3.3-0.2,4.6-0.4c1.3-0.2,2.5-0.6,3.3-1.2c1-0.6,1.5-1.2,2.1-1.9
			c0.4-0.8,0.8-1.5,0.8-2.5c0-2.1-1.3-4.2-4.2-6.1c-2.9-1.9-10-6-21.3-12.1c-15.2-8.1-26.3-16.3-33.4-24.6
			c-6.9-8.3-10.4-18.8-10.4-31.3c0-12.3,3.1-23.4,9.2-33c6.1-9.6,14.4-17.1,25-22.3s22.1-7.7,35-7.7c13.1,0,25.4,2.7,36.9,7.9
			c11.5,5.4,21.3,12.9,29.2,22.9l-36.5,34c-4.2-6.5-9-11.1-14.2-14c-5-2.9-9.8-4.2-14.2-4.4c-2.9,0-5.4,0.6-7.7,1.9
			c-2.3,1.3-3.5,3.5-3.5,6c0,1.9,1.9,4.2,5.4,6.7c3.7,2.7,9.6,6,18.1,10.2c6.7,3.5,12.5,6.5,17.1,9.4c4.6,2.9,9,6.1,13.1,9.6
			c4,3.5,7.1,6.9,9.4,10.8c2.3,3.8,4,8.1,5.2,12.7c1.3,4.6,1.9,9.8,1.9,15.4c0,17.5-6.5,31.7-19.6,42.7s-30.7,16.5-53,16.5
			c-13.4,0-26.9-2.7-40.3-8.1c-13.3-5.4-24.2-13.1-32.5-22.9l33-35.4C438,518.6,444.5,523.7,452.4,527.8"/>
		<path class="st1" d="M670.6,565.6c-16.3,8.6-33,13.1-50.3,13.1c-4.6,0-8.8-0.4-12.9-1.2c-4-0.8-7.9-2.1-11.7-4
			c-3.8-1.9-7.1-4.2-9.8-7.5c-2.7-3.1-5-6.7-7.1-11.3c-2.1-4.6-3.3-9.6-3.7-15.6c-0.4-6-0.2-12.9,0.4-20.6l8.8-74.4h-17.5l6.1-50.1
			h17.7l6.5-51.1l64.4-12.5l-7.9,63.6h34l-6.1,50.1h-34l-7.9,66.9c-0.4,3.8-0.2,6.7,1,8.6s2.9,3.1,5.4,3.1c3.8,0,8.6-1.3,14.2-4
			L670.6,565.6z"/>
		<path class="st1" d="M849.5,411.4c13.8,13.8,20.9,33,20.9,57.8c0,11.7-1.2,22.9-3.7,33.4c-2.5,10.6-6.3,20.6-11.7,29.8
			c-5.4,9.2-11.9,17.3-19.8,24.2c-7.9,6.7-17.5,12.1-29,16.1c-11.5,3.8-24.4,6-38.6,6c-23.1,0-41.7-6.9-55.5-20.9
			c-14-13.8-20.9-33-20.9-57.6c0-11.7,1.3-22.9,4.2-33.6c2.9-10.8,6.9-20.7,12.7-30c5.8-9.2,12.5-17.3,20.4-24
			c8.1-6.9,17.5-12.3,28.4-16.1c11.1-3.8,23.1-6,35.9-6C816.6,390.8,835.5,397.5,849.5,411.4 M773.6,451.1
			c-4.2,3.1-7.7,7.1-10.4,11.9c-2.7,5-4.8,10.6-6.1,16.5c-1.5,6.1-2.1,12.3-2.1,18.4c0,4.6,0.8,8.8,1.9,12.1c1.3,3.5,2.9,6,5,7.7
			c2.1,1.7,4,3.1,6,3.8c1.9,0.8,3.8,1.2,5.8,1.2c6.5,0,12.3-2.5,17.5-7.5c5.2-5,9-11.1,11.7-18.8c2.7-7.5,4-15.6,4-24
			c0-5.2-0.6-9.6-1.9-13.3c-1.3-3.7-3.1-6.5-5.2-8.3c-2.1-1.7-4.2-2.9-6.1-3.7c-1.9-0.8-4-1-6.1-1
			C782.4,446.5,777.8,448.2,773.6,451.1"/>
		<path class="st1" d="M202.4,394.3l-19.2,157C175,618.1,139.6,651.7,77,651.7c-26.1,0-48.8-5.8-68.2-17.5L28.2,587
			c14.2,8.6,29.2,13.1,44.8,13.1c5.4,0,10-0.4,14-1.2c4-0.8,7.9-2.3,11.7-4.6c3.8-2.3,7.1-5.4,9.8-9.2c2.7-3.8,5.2-9,7.3-15.6
			c2.1-6.3,3.8-14,5-23.1h-0.6C107.1,564.5,91,573.5,72,573.5c-9,0-17.1-1.9-24.6-5.6c-7.3-3.8-13.3-8.6-18.1-15
			c-4.6-6.3-8.3-13.6-10.8-21.9s-3.7-17.1-3.7-26.3c0-16.5,2.3-32.1,6.9-46.5c4.6-14.4,10.8-26.5,18.4-36.1
			c7.7-9.8,16.5-17.5,26.7-23.1c10.2-5.6,20.6-8.3,31.3-8.3c16.9,0,30,4.8,39.2,14.4h1l1.3-10.6L202.4,394.3L202.4,394.3
			L202.4,394.3z M118.7,501.3c7.5-10.8,12.7-25.4,15.6-43.6l0.2-1.2c-3.5-3.5-6.9-6-10.4-7.7c-3.7-1.5-7.9-2.3-12.9-2.3
			c-6.5,0-12.3,2.9-17.7,8.5s-9.2,12.1-11.7,19.6c-2.7,7.5-3.8,14.6-3.8,21.5c0,7.1,1.5,12.5,4.6,16.1c3.1,3.7,7.1,5.4,12.1,5.4
			C103.1,517.4,111.2,512,118.7,501.3"/>
		<path class="st8" d="M173.2,205.8c8.1,6.1,14.4,14.6,18.4,25c4,10.6,6.1,22.5,6.1,35.9c0,22.7-3.8,41.9-11.1,57.8
			c-7.5,15.9-18.8,28.2-34,36.7c-15.2,8.6-33.8,12.9-55.9,12.9c-28.6,0-54-5.8-75.9-16.9l29.8-242.8H110L96.8,222.9h0.8
			c6-8.1,12.7-14.6,20.6-19.2s16.5-7.1,25.9-7.1C155.4,196.6,165.2,199.6,173.2,205.8 M119.6,314.7c6.3-4.6,11-10.4,14-17.7
			c3.1-7.1,4.6-15.2,4.6-24c0-7.1-1.5-12.9-4.6-17.3c-2.9-4.4-6.7-6.5-11.3-6.5c-8.6,0-16.7,5.6-24.2,16.9
			c-7.5,11.1-12.5,26.7-15,46.7v-0.2l-1,7.5c5.2,1,10,1.5,14.6,1.5C105.8,321.6,113.3,319.3,119.6,314.7"/>
		<path class="st8" d="M361.7,216.3c13.1,13.1,19.8,31.1,19.8,54.6c0,11-1.2,21.3-3.5,31.3c-2.3,10-6,19.2-11,28
			c-5,8.8-11.3,16.3-18.6,22.7c-7.3,6.3-16.5,11.5-27.3,15.2s-23.1,5.6-36.3,5.6c-21.7,0-39.2-6.5-52.3-19.6
			c-13.1-13.1-19.8-31.1-19.8-54.2c0-11,1.3-21.5,3.8-31.7c2.7-10.2,6.5-19.6,11.9-28.2c5.4-8.6,11.7-16.1,19.2-22.7
			c7.5-6.3,16.3-11.5,26.9-15.2c10.4-3.7,21.7-5.6,33.8-5.6C331,196.8,348.6,203.3,361.7,216.3 M290.2,253.8
			c-3.8,2.9-7.1,6.5-9.8,11.3c-2.5,4.6-4.4,9.8-5.8,15.6c-1.3,5.8-2.1,11.5-2.1,17.3c0,4.4,0.6,8.3,1.9,11.5
			c1.3,3.3,2.9,5.6,4.8,7.3c1.9,1.5,3.8,2.9,5.8,3.5c1.9,0.8,3.7,1.2,5.6,1.2c6.1,0,11.5-2.3,16.5-6.9c4.8-4.6,8.5-10.6,11-17.7
			c2.5-7.1,3.7-14.6,3.7-22.7c0-4.8-0.6-9-1.9-12.5c-1.2-3.5-2.9-6.1-4.8-7.7c-1.9-1.7-4-2.9-5.8-3.5c-1.7-0.6-3.8-1-5.8-1
			C298.7,249.4,294.3,250.9,290.2,253.8"/>
		<path class="st8" d="M560.4,213.5c6.3,11.1,8.1,28.4,5,52.1l-13.4,104.9h-59l11.7-88.8c1.5-11.5,1.9-19.6,0.8-24.8
			c-1-5-3.7-7.5-7.9-7.5c-3.3,0-6.9,1.2-10.4,3.5c-3.5,2.3-6.9,5.6-10.2,10.2c-3.3,4.6-6.3,10.8-9,18.4c-2.7,7.7-4.6,16.7-6,26.9
			l-7.7,62.1h-59.2l20.9-170.2h59.2l-2.7,21.7h0.8c14.6-16.7,32.7-25.2,54.4-25.2C542.9,196.8,554,202.3,560.4,213.5"/>
	</g>
</g>
</svg>
